<svg xmlns="http://www.w3.org/2000/svg" xmlns:xlink="http://www.w3.org/1999/xlink" width="256" height="256"><svg xmlns="http://www.w3.org/2000/svg" xmlns:xlink="http://www.w3.org/1999/xlink" width="256" height="256" viewBox="0 0 64 64"><defs><linearGradient id="a" x1="32" x2="32" y1="15.643" y2="20.539" gradientUnits="userSpaceOnUse"><stop class="stopColor4d4d4d svgShape" offset="0" stop-color="#4d4d4d"/><stop class="stopColor1a1a1a svgShape" offset="1" stop-color="#1a1a1a"/></linearGradient><linearGradient id="e" x1="8" x2="56" y1="36.5" y2="36.5" gradientUnits="userSpaceOnUse"><stop class="stopColorccc svgShape" offset="0" stop-color="#ccc"/><stop class="stopColorf2f2f2 svgShape" offset="1" stop-color="#f2f2f2"/></linearGradient><linearGradient xlink:href="#a" id="f" x2="32" y1="52.732" y2="56.716"/><linearGradient id="g" x1="31" x2="33" y1="58" y2="58" gradientUnits="userSpaceOnUse"><stop class="stopColor1a1a1a svgShape" offset="0" stop-color="#1a1a1a"/><stop class="stopColor4d4d4d svgShape" offset="1" stop-color="#4d4d4d"/></linearGradient><linearGradient id="c" x1="22.686" x2="27.662" y1="29.264" y2="24.427" gradientUnits="userSpaceOnUse"><stop class="stopColorf8be31 svgShape" offset="0" stop-color="#f8be31"/><stop class="stopColorfeec5e svgShape" offset="1" stop-color="#feec5e"/></linearGradient><linearGradient id="b" x1="40.5" x2="40.5" y1="25.817" y2="22.451" gradientUnits="userSpaceOnUse"><stop class="stopColorgray svgShape" offset="0" stop-color="gray"/><stop class="stopColorb3b3b3 svgShape" offset="1" stop-color="#b3b3b3"/></linearGradient><linearGradient xlink:href="#b" id="h" x1="41.5" x2="41.5" y1="28.393" y2="25.825"/><linearGradient xlink:href="#b" id="i" x1="14" x2="14" y1="44.179" y2="41.955"/><linearGradient xlink:href="#b" id="j" x1="16" x2="16" y1="47.286" y2="44.696"/><linearGradient xlink:href="#b" id="k" x1="18.5" x2="18.5" y1="50.018" y2="47.95"/><linearGradient xlink:href="#c" id="l" x1="37" x2="40" y1="46.5" y2="46.5"/><linearGradient id="m" x1="49" x2="52" y1="43" y2="43" gradientUnits="userSpaceOnUse"><stop class="stopColor1964bd svgShape" offset="0" stop-color="#1964bd"/><stop class="stopColor2795f1 svgShape" offset="1" stop-color="#2795f1"/></linearGradient><linearGradient xlink:href="#d" id="n" x1="43" x2="46" y1="45" y2="45"/><linearGradient xlink:href="#b" id="o" x1="29" x2="29" y1="50.071" y2="47.687"/><linearGradient id="p" x1="42.313" x2="45.555" y1="33.314" y2="37.515" gradientUnits="userSpaceOnUse"><stop class="stopColorb3b3b3 svgShape" offset="0" stop-color="#b3b3b3"/><stop class="stopColorgray svgShape" offset="1" stop-color="gray"/></linearGradient><linearGradient xlink:href="#b" id="q" x1="49.5" x2="49.5" y1="28.018" y2="25.723"/><linearGradient xlink:href="#b" id="r" x1="44.5" x2="44.5" y1="50.42" y2="47.345"/><linearGradient id="s" x1="45" x2="59" y1="12" y2="12" gradientUnits="userSpaceOnUse"><stop class="stopColorf8be31 svgShape" offset="0" stop-color="#f8be31"/><stop class="stopColorfbd63b svgShape" offset="1" stop-color="#fbd63b"/></linearGradient><linearGradient id="t" x1="48" x2="56" y1="12" y2="12" gradientUnits="userSpaceOnUse"><stop class="stopColorfdf7c3 svgShape" offset="0" stop-color="#fdf7c3"/><stop class="stopColorfff svgShape" offset="1" stop-color="#fff"/></linearGradient><radialGradient id="d" cx="19.875" cy="32.125" r="7.875" gradientUnits="userSpaceOnUse"><stop class="stopColor2c7c33 svgShape" offset="0" stop-color="#2c7c33"/><stop class="stopColor4aae50 svgShape" offset="1" stop-color="#4aae50"/></radialGradient></defs><rect width="54" height="4" x="5" y="16" fill="url(#a)" rx="1"/><path fill="url(#e)" d="M8 20h48v33H8z"/><rect width="54" height="3" x="5" y="53" fill="url(#f)" rx="1"/><path fill="url(#g)" d="M33 56v3a1 1 0 0 1-2 0v-3Z"/><path fill="url(#d)" d="M27.75 34A8.002 8.002 0 1 1 18 24.25v3.16A5.005 5.005 0 1 0 24.59 34Z"/><path fill="url(#c)" d="M27.94 31H24.9a5.01 5.01 0 0 0-3.9-3.9v-3.04A8.003 8.003 0 0 1 27.94 31Z"/><path fill="url(#b)" d="M31 29a1 1 0 0 1-.707-1.707l4-4A1 1 0 0 1 35 23h15a1 1 0 0 1 0 2H35.414l-3.707 3.707A.997.997 0 0 1 31 29Z"/><path fill="url(#h)" d="M46 28h-9a1 1 0 0 1 0-2h9a1 1 0 0 1 0 2Z"/><path fill="url(#i)" d="M16 44h-4a1 1 0 0 1 0-2h4a1 1 0 0 1 0 2Z"/><path fill="url(#j)" d="M20 47h-8a1 1 0 0 1 0-2h8a1 1 0 0 1 0 2Z"/><path fill="url(#k)" d="M25 50H12a1 1 0 0 1 0-2h13a1 1 0 0 1 0 2Z"/><path fill="url(#l)" d="M37 44h3v5h-3z"/><path fill="url(#m)" d="M49 37h3v12h-3z"/><path fill="url(#n)" d="M43 41h3v8h-3z"/><path fill="url(#o)" d="M30 50h-2a1 1 0 0 1 0-2h2a1 1 0 0 1 0 2Z"/><path fill="url(#p)" d="M38 40a1 1 0 0 1-.64-1.768l6-5A1 1 0 0 1 45 34v.865l4.36-3.633a1 1 0 0 1 1.28 1.536l-6 5A1 1 0 0 1 43 37v-.865l-4.36 3.633A.997.997 0 0 1 38 40Z"/><path fill="url(#q)" d="M50 28h-1a1 1 0 0 1 0-2h1a1 1 0 0 1 0 2Z"/><path fill="url(#r)" d="M53 50H36a1 1 0 0 1 0-2h17a1 1 0 0 1 0 2Z"/><path fill="url(#s)" d="M59 12a7.015 7.015 0 0 1-7 7 6.995 6.995 0 0 1-4.42-12.42A6.917 6.917 0 0 1 52 5a6.995 6.995 0 0 1 7 7Z"/><path fill="url(#t)" d="M53 11V9h1a1 1 0 0 0 0-2h-1a1 1 0 0 0-2 0 3 3 0 0 0 0 6v2h-1a1 1 0 0 0 0 2h1a1 1 0 0 0 2 0 3 3 0 0 0 0-6Zm-3-1a1 1 0 0 1 1-1v2a1 1 0 0 1-1-1Zm3 5v-2a1 1 0 0 1 0 2Z"/></svg></svg>