<svg xmlns="http://www.w3.org/2000/svg" width="256" height="256"><svg xmlns="http://www.w3.org/2000/svg" width="256" height="256" viewBox="0 0 51 51"><path fill="#aa6256" d="M31.688 3.411 28.657 1.5 7.508 14.1l-.241 33.489 3.031 1.911 21.485-12.405z" class="coloraa6256 svgShape"/><path fill="#aa6256" d="m10.298 49.5-3.031-1.911.241-33.489 2.694 1.715z" class="coloraa6256 svgShape"/><path fill="#dba660" d="M10.202 15.815 7.508 14.1 28.657 1.5l3.031 1.911z" class="colordba660 svgShape"/><path fill="#bf7d5a" d="m31.688 3.411.095 33.684L10.298 49.5l-.096-33.685z" class="colorbf7d5a svgShape"/><path fill="#fff" d="M31.112 36.486 11.079 48.051l-.086-30.241L31.027 6.243z" class="colorfff svgShape"/><path fill="#9ea9c9" d="m16.107 17.395-.857-.498-.01-2.506.857.498z" class="color9ea9c9 svgShape"/><path fill="#e3e7f0" d="m16.097 14.889-.857-.498 10.768-6.216.857.498z" class="colore3e7f0 svgShape"/><path fill="#3b475a" d="m14.36 18.283-.016-1.594a.215.215 0 0 1 .109-.19l1.005-.581a.218.218 0 0 1 .218.377l-.894.517.015 1.468c.002.647.398.849.945.533l10.428-6.02c.64-.37 1.157-1.264 1.155-1.995l-.013-1.22-.486.28a.219.219 0 0 1-.298-.08.219.219 0 0 1 .08-.297l.809-.467a.218.218 0 0 1 .327.186l.017 1.595c.002.887-.6 1.93-1.373 2.375L15.96 19.19c-.856.496-1.596.055-1.6-.907z" class="color3b475a svgShape"/><path fill="#b0b8cf" d="m26.865 8.673.009 2.506-10.767 6.216-.01-2.506z" class="colorb0b8cf svgShape"/><path fill="#fff" d="M17.355 14.79c.01.041.016.086.016.135.001.352-.245.778-.55.954-.02.012-.04.019-.06.028.057.248.276.331.537.18.306-.176.552-.602.551-.953 0-.326-.217-.469-.494-.344zm8.378-4.837c.01.041.016.085.017.135 0 .351-.245.777-.55.954-.022.012-.041.019-.061.028.057.248.276.331.538.18.306-.176.551-.602.55-.954 0-.326-.217-.468-.494-.343z" class="colorfff svgShape"/><path fill="#3b475a" d="M17.371 14.925a.594.594 0 0 0-.016-.135c-.02.01-.04.016-.06.028-.304.176-.552.604-.55.954 0 .05.006.094.015.135.02-.01.04-.016.06-.028.306-.176.552-.602.551-.954zm8.379-4.837a.592.592 0 0 0-.017-.135c-.02.009-.04.016-.06.028-.305.176-.551.604-.55.953a.6.6 0 0 0 .016.136c.02-.01.04-.016.06-.028.306-.177.552-.603.55-.954z" class="color3b475a svgShape"/><path fill="#f45170" d="m17.303 28.704.034 11.502-2.327 1.343-.034-11.502z" class="colorf45170 svgShape"/><path fill="#6bb4f9" d="m22.395 22.803.095 14.431-2.387 1.378-.035-14.466z" class="color6bb4f9 svgShape"/><path fill="#78e75a" d="m27.608 25.666.034 8.687-2.452 1.416-.034-8.687z" class="color78e75a svgShape"/><path fill="#dedffb" d="M30.349 30.017v-.256l-.01-2.686v-.256l-.042-14.69c-.1.059-16.581 9.575-15.576 8.994.08 30.056-.025-8.724.057 20.824 19.258-11.111 8.564-4.945 15.576-8.993l-.005-2.937zm-13.067-10.12.005 2.687-2.337 1.35-.005-2.686 2.337-1.351zm.01 2.937.005 2.686-2.337 1.351-.01-2.686 2.342-1.351zm-2.332 4.288 2.337-1.346.01 2.681-2.341 1.351-.006-2.686zm2.348 1.59.005 2.682-2.337 1.351-.005-2.681 2.337-1.351zm.005 2.938.01 2.686-2.336 1.351-.01-2.686 2.336-1.351zm.01 2.942.006 2.68-2.337 1.352-.005-2.681 2.337-1.351zm-2.32 6.969-.011-2.681 2.342-1.352.005 2.687-2.337 1.346zm4.835-23.14.01 2.686-2.337 1.346-.01-2.681 2.337-1.351zm.01 2.937.005 2.686-2.336 1.351-.006-2.686 2.337-1.351zm-2.321 6.974-.01-2.686 2.336-1.352.01 2.687m0 .256.011 2.68-2.342 1.352-.005-2.681 2.337-1.351zm.011 2.936.006 2.687-2.337 1.346-.01-2.682 2.341-1.35zm.006 2.942.01 2.682-2.337 1.35-.01-2.68 2.337-1.352zm-2.322 6.97-.005-2.682 2.337-1.35.005 2.686-2.337 1.346zm4.841-23.14.005 2.686-2.331 1.346-.01-2.681 2.336-1.351zm.005 2.936.01 2.687-2.336 1.346-.005-2.687 2.331-1.346zm.01 2.937.006 2.687-2.332 1.346-.01-2.682 2.337-1.35zm.006 2.942.01 2.682-2.337 1.35-.005-2.686 2.332-1.346zm.01 2.937.006 2.687-2.332 1.345-.01-2.68 2.336-1.352zm.01 2.942.006 2.681-2.332 1.346-.01-2.681 2.337-1.346zm-2.32 6.97-.006-2.682 2.332-1.351.01 2.681-2.336 1.351zm4.84-23.14.006 2.68-2.337 1.352-.01-2.682 2.341-1.35zm-2.33 4.281 2.337-1.351.01 2.692-2.342 1.345-.005-2.686zm2.347 1.591.005 2.681-2.337 1.351-.005-2.681 2.337-1.351zm.005 2.937.01 2.686-2.336 1.346-.01-2.681 2.336-1.351zm.01 2.942.006 2.681-2.337 1.351-.005-2.681 2.337-1.351zm.011 2.937.005 2.686-2.337 1.346-.01-2.681 2.342-1.351zm-2.326 6.974-.006-2.686 2.337-1.346.01 2.681-2.341 1.351zm4.84-23.14.006 2.681-2.337 1.351-.006-2.686 2.337-1.346zm.01 2.932.006 2.686-2.337 1.351-.01-2.686 2.342-1.351zm-2.33 4.293 2.336-1.351.01 2.681-2.342 1.351-.005-2.681zm2.346 1.586.006 2.686-2.337 1.346-.005-2.681 2.336-1.351zm.006 2.942.01 2.68-2.337 1.352-.01-2.687 2.337-1.345zm.01 2.936.005 2.682-2.337 1.35-.005-2.68 2.337-1.352zm-2.321 6.975-.01-2.687 2.342-1.345.005 2.68-2.337 1.352zm4.84-23.145.006 2.686-2.337 1.346-.005-2.681 2.337-1.351zm.011 2.936.005 2.687-2.337 1.351-.01-2.686 2.342-1.352zm-2.332 4.288 2.337-1.35.01 2.686-2.341 1.346-.006-2.682zm2.348 1.591.005 2.682-2.337 1.35-.005-2.68 2.337-1.352zm.005 2.937.01 2.687-2.337 1.345-.01-2.68 2.337-1.352zm.01 2.942.006 2.681-2.337 1.351-.006-2.686 2.337-1.346zm-2.32 6.97-.011-2.682 2.342-1.35.005 2.68-2.337 1.351z" class="colordedffb svgShape"/><path fill="#dedffb" d="M30.349 30.017v-.256l-.01-2.686v-.256l-.042-14.69c-.1.059-16.581 9.575-15.576 8.994.08 30.056-.025-8.724.057 20.824 19.258-11.111 8.564-4.945 15.576-8.993l-.005-2.937zm-13.067-10.12.005 2.687-2.337 1.35-.005-2.686 2.337-1.351zm.01 2.937.005 2.686-2.337 1.351-.01-2.686 2.342-1.351zm-2.332 4.288 2.337-1.346.01 2.681-2.341 1.351-.006-2.686zm2.348 1.59.005 2.682-2.337 1.351-.005-2.681 2.337-1.351zm.005 2.938.01 2.686-2.336 1.351-.01-2.686 2.336-1.351zm.01 2.942.006 2.68-2.337 1.352-.005-2.681 2.337-1.351zm-2.32 6.969-.011-2.681 2.342-1.352.005 2.687-2.337 1.346zm4.835-23.14.01 2.686-2.337 1.346-.01-2.681 2.337-1.351zm.01 2.937.005 2.686-2.336 1.351-.006-2.686 2.337-1.351zm-2.321 6.974-.01-2.686 2.336-1.352.01 2.687m0 .256.011 2.68-2.342 1.352-.005-2.681 2.337-1.351zm.011 2.936.006 2.687-2.337 1.346-.01-2.682 2.341-1.35zm.006 2.942.01 2.682-2.337 1.35-.01-2.68 2.337-1.352zm-2.322 6.97-.005-2.682 2.337-1.35.005 2.686-2.337 1.346zm4.841-23.14.005 2.686-2.331 1.346-.01-2.681 2.336-1.351zm.005 2.936.01 2.687-2.336 1.346-.005-2.687 2.331-1.346zm.01 2.937.006 2.687-2.332 1.346-.01-2.682 2.337-1.35zm.006 2.942.01 2.682-2.337 1.35-.005-2.686 2.332-1.346zm.01 2.937.006 2.687-2.332 1.345-.01-2.68 2.336-1.352zm.01 2.942.006 2.681-2.332 1.346-.01-2.681 2.337-1.346zm-2.32 6.97-.006-2.682 2.332-1.351.01 2.681-2.336 1.351zm4.84-23.14.006 2.68-2.337 1.352-.01-2.682 2.341-1.35zm-2.33 4.281 2.337-1.351.01 2.692-2.342 1.345-.005-2.686zm2.347 1.591.005 2.681-2.337 1.351-.005-2.681 2.337-1.351zm.005 2.937.01 2.686-2.336 1.346-.01-2.681 2.336-1.351zm.01 2.942.006 2.681-2.337 1.351-.005-2.681 2.337-1.351zm.011 2.937.005 2.686-2.337 1.346-.01-2.681 2.342-1.351zm-2.326 6.974-.006-2.686 2.337-1.346.01 2.681-2.341 1.351zm4.84-23.14.006 2.681-2.337 1.351-.006-2.686 2.337-1.346zm.01 2.932.006 2.686-2.337 1.351-.01-2.686 2.342-1.351zm-2.33 4.293 2.336-1.351.01 2.681-2.342 1.351-.005-2.681zm2.346 1.586.006 2.686-2.337 1.346-.005-2.681 2.336-1.351zm.006 2.942.01 2.68-2.337 1.352-.01-2.687 2.337-1.345zm.01 2.936.005 2.682-2.337 1.35-.005-2.68 2.337-1.352zm-2.321 6.975-.01-2.687 2.342-1.345.005 2.68-2.337 1.352zm4.84-23.145.006 2.686-2.337 1.346-.005-2.681 2.337-1.351zm.011 2.936.005 2.687-2.337 1.351-.01-2.686 2.342-1.352zm-2.332 4.288 2.337-1.35.01 2.686-2.341 1.346-.006-2.682zm2.348 1.591.005 2.682-2.337 1.35-.005-2.68 2.337-1.352zm.005 2.937.01 2.687-2.337 1.345-.01-2.68 2.337-1.352zm.01 2.942.006 2.681-2.337 1.351-.006-2.686 2.337-1.346zm-2.32 6.97-.011-2.682 2.342-1.35.005 2.68-2.337 1.351z" class="colordedffb svgShape"/><path fill="#1d2943" d="M12.747 23.359a.166.166 0 0 0 .036-.03l.126-.145.002.77-.153.088a.127.127 0 0 0-.048.051.131.131 0 0 0-.02.066c.001.022.007.037.02.044.013.007.029.005.048-.006l.423-.244a.136.136 0 0 0 .048-.049.13.13 0 0 0 .02-.067c0-.021-.007-.036-.02-.045-.013-.007-.03-.005-.048.006l-.127.073-.002-.878c0-.024-.008-.04-.022-.049-.015-.008-.033-.006-.053.006l-.029.017a.178.178 0 0 0-.043.036l-.185.22a.145.145 0 0 0-.041.097c0 .023.006.039.02.045.012.008.029.005.048-.006zm1.058.25a.69.69 0 0 0 .282-.32c.065-.14.097-.3.096-.475 0-.175-.033-.297-.098-.362-.065-.067-.161-.064-.283.006a.689.689 0 0 0-.283.32c-.065.14-.096.3-.096.475 0 .174.033.297.098.362.065.067.161.065.284-.006zm.172-.987c.042.05.063.143.063.275a.9.9 0 0 1-.061.347.416.416 0 0 1-.174.21c-.077.045-.134.042-.176-.008-.04-.051-.062-.143-.062-.276 0-.131.02-.248.06-.346a.416.416 0 0 1 .175-.21c.077-.045.134-.042.175.008zm-.942 3.694a5.456 5.456 0 0 1-.132.18 5.92 5.92 0 0 0-.157.216c-.04.06-.075.121-.103.184a.45.45 0 0 0-.043.183c0 .027.008.044.024.052.015.009.035.006.059-.008l.528-.305a.136.136 0 0 0 .048-.048.131.131 0 0 0 .02-.068c0-.021-.007-.036-.02-.044-.014-.007-.03-.006-.048.005l-.461.266a.591.591 0 0 1 .058-.106c.031-.047.08-.115.143-.2.07-.094.128-.174.171-.239a1.36 1.36 0 0 0 .115-.208.508.508 0 0 0 .048-.206c0-.065-.014-.115-.044-.148a.143.143 0 0 0-.118-.049.345.345 0 0 0-.163.054 1.2 1.2 0 0 0-.308.26.136.136 0 0 0-.035.087c0 .02.006.035.018.041.012.007.026.006.042-.003a.127.127 0 0 0 .031-.027.988.988 0 0 1 .23-.189c.12-.069.208-.073.208.065a.28.28 0 0 1-.031.119.962.962 0 0 1-.08.136zm.775.173a.69.69 0 0 0 .282-.32c.065-.141.097-.301.097-.475 0-.175-.034-.297-.099-.363s-.16-.064-.283.007a.689.689 0 0 0-.283.32c-.064.14-.096.3-.095.475 0 .174.033.297.098.362.065.067.16.065.283-.006zm.172-.987c.042.05.063.143.063.275 0 .132-.02.248-.06.347a.416.416 0 0 1-.175.21c-.077.045-.134.042-.175-.008-.041-.051-.063-.143-.063-.276 0-.132.02-.248.061-.346a.416.416 0 0 1 .174-.211c.077-.044.134-.041.175.009zm-1.343 4.482a.75.75 0 0 0 .29-.104.83.83 0 0 0 .26-.232.495.495 0 0 0 .103-.293c0-.088-.022-.143-.065-.164a.171.171 0 0 0-.116-.013.684.684 0 0 0 .096-.139.436.436 0 0 0 .05-.207c0-.093-.032-.148-.091-.165-.06-.017-.143.006-.25.068a1.05 1.05 0 0 0-.275.24.125.125 0 0 0-.033.082c0 .02.007.033.019.039.011.006.024.006.04-.003a.14.14 0 0 0 .03-.025.863.863 0 0 1 .208-.171c.07-.04.122-.056.157-.049.034.008.05.035.05.082a.267.267 0 0 1-.067.172.73.73 0 0 1-.204.164l-.009.005a.137.137 0 0 0-.047.05.136.136 0 0 0-.02.065c0 .022.008.036.02.043.014.008.03.007.048-.004l.022-.012c.197-.114.293-.108.294.017 0 .06-.023.113-.068.164a.704.704 0 0 1-.39.22.079.079 0 0 0-.03.01.124.124 0 0 0-.046.05.131.131 0 0 0-.018.064c0 .017.004.03.012.037.007.007.018.01.03.009zm-.015-.031-.002-.006c.001.002 0 .005.002.006.005.005.013.007.022.007-.01 0-.017-.002-.022-.007zm.444-.194zm.06-.876.004.036a.163.163 0 0 0-.004-.036zm.14.553a.44.44 0 0 1 .005-.07.41.41 0 0 1-.006.07zm-.054-.222zm-.309-.34zm.14.437a.628.628 0 0 0-.19.08l-.022.012.022-.012a.628.628 0 0 1 .19-.08zm.77.057a.688.688 0 0 0 .283-.32c.064-.14.097-.3.096-.474 0-.175-.034-.298-.099-.363-.065-.067-.16-.064-.283.006a.689.689 0 0 0-.282.32c-.065.14-.097.3-.096.475 0 .175.033.297.098.362.065.067.16.065.284-.006zm.173-.986c.042.05.062.143.063.274a.89.89 0 0 1-.061.347.416.416 0 0 1-.175.211c-.076.044-.134.041-.175-.009-.041-.05-.062-.144-.063-.275a.9.9 0 0 1 .061-.347.416.416 0 0 1 .175-.21c.076-.044.134-.041.175.009zm-.698 3.73-.095.054-.001-.599c0-.029-.009-.048-.025-.058-.017-.01-.038-.008-.064.008l-.028.015a.166.166 0 0 0-.043.036.217.217 0 0 0-.032.05l-.428.878a.167.167 0 0 0-.019.075v.014c0 .028.01.047.026.056.018.01.04.007.063-.007l.408-.236.001.203c0 .023.007.039.02.047.014.007.031.005.051-.006a.145.145 0 0 0 .051-.053.136.136 0 0 0 .021-.07v-.204l.095-.054a.132.132 0 0 0 .046-.048.121.121 0 0 0 .019-.064c0-.02-.006-.035-.02-.042-.012-.007-.028-.006-.046.005zm-.573.33.334-.69.001.497-.335.194zm1.104-.194a.69.69 0 0 0 .282-.32c.065-.14.097-.3.096-.475 0-.175-.033-.297-.098-.362-.065-.067-.161-.064-.283.006a.689.689 0 0 0-.283.32c-.065.14-.096.3-.096.475 0 .174.033.297.098.362.065.067.161.065.284-.006zm.172-.987c.042.05.063.143.063.275a.9.9 0 0 1-.061.347.416.416 0 0 1-.174.21c-.077.045-.134.042-.175-.008-.042-.051-.063-.143-.063-.276 0-.131.02-.248.06-.346a.416.416 0 0 1 .175-.21c.077-.045.134-.042.175.008zm-1.067 4.222a.4.4 0 0 1-.214.059.075.075 0 0 0-.034.01.12.12 0 0 0-.046.051.139.139 0 0 0-.017.065c0 .017.002.028.009.035.004.006.013.01.023.012.084.014.184-.013.297-.078a.791.791 0 0 0 .286-.267.602.602 0 0 0 .097-.321.314.314 0 0 0-.039-.167.135.135 0 0 0-.113-.066.331.331 0 0 0-.177.056.879.879 0 0 0-.22.182l.04-.326.389-.224a.138.138 0 0 0 .047-.05.13.13 0 0 0 .02-.066c0-.022-.006-.037-.02-.045-.013-.007-.03-.005-.048.006l-.44.253a.157.157 0 0 0-.054.056.188.188 0 0 0-.027.079l-.06.454a.283.283 0 0 0-.003.041c0 .03.01.05.03.058.018.007.042.003.07-.013a.14.14 0 0 0 .037-.032l.016-.019a.73.73 0 0 1 .206-.185c.062-.037.113-.048.148-.032.036.015.055.053.055.114a.317.317 0 0 1-.064.2.646.646 0 0 1-.194.16zm-.205.21zm.52-1.247zm-.519.809zm.258-.236zm.846.108a.688.688 0 0 0 .282-.32c.065-.14.097-.3.097-.475 0-.174-.034-.296-.099-.362s-.16-.065-.283.006a.69.69 0 0 0-.283.321c-.064.14-.096.3-.095.474 0 .175.033.298.098.363.065.067.16.064.283-.007zm.173-.986c.041.05.062.143.063.274a.89.89 0 0 1-.062.348.416.416 0 0 1-.174.21c-.077.045-.134.042-.175-.008-.041-.051-.063-.144-.063-.277 0-.13.02-.247.061-.345a.416.416 0 0 1 .175-.211c.076-.044.133-.041.175.009zm-.81 3.535a.301.301 0 0 0-.168.05.668.668 0 0 0-.175.142.814.814 0 0 0-.094.13.976.976 0 0 1 .066-.28.47.47 0 0 1 .209-.239.398.398 0 0 1 .179-.058.069.069 0 0 0 .027-.01.125.125 0 0 0 .047-.05.128.128 0 0 0 .018-.063.055.055 0 0 0-.01-.033.03.03 0 0 0-.024-.014.45.45 0 0 0-.247.073.686.686 0 0 0-.236.225.992.992 0 0 0-.13.295c-.026.102-.04.2-.04.292.002.381.132.5.387.352a.685.685 0 0 0 .184-.154.736.736 0 0 0 .121-.203.58.58 0 0 0 .042-.211.318.318 0 0 0-.042-.177.143.143 0 0 0-.114-.067zm-.038.188c.033.022.05.067.05.135a.33.33 0 0 1-.025.123.451.451 0 0 1-.07.119.394.394 0 0 1-.107.09c-.137.08-.216.036-.241-.136a.565.565 0 0 1 .248-.309c.064-.036.112-.044.145-.022zm.681.143a.688.688 0 0 0 .282-.32c.064-.14.097-.3.096-.475 0-.174-.033-.297-.099-.362-.065-.067-.16-.065-.283.006a.69.69 0 0 0-.282.32c-.065.14-.097.3-.096.475 0 .175.033.297.098.362.065.067.16.065.284-.006zm.172-.986c.042.05.063.143.063.273a.89.89 0 0 1-.061.348c-.041.098-.098.167-.175.211s-.134.041-.175-.009c-.04-.05-.062-.144-.063-.276 0-.131.02-.248.061-.346a.416.416 0 0 1 .175-.21c.076-.044.134-.041.175.009zm-.76 3.071-.559.323a.136.136 0 0 0-.048.051.139.139 0 0 0-.02.068c0 .022.007.036.02.044.014.008.03.006.049-.005l.482-.278-.367 1.058a.149.149 0 0 0-.01.048c0 .022.007.038.02.046s.032.006.052-.006a.174.174 0 0 0 .067-.084l.386-1.138a.272.272 0 0 0 .014-.082c0-.028-.008-.046-.025-.054-.016-.008-.037-.005-.06.01zm-.402 1.335zm1.275-1.697c-.065-.067-.161-.065-.283.005a.69.69 0 0 0-.283.321c-.065.14-.096.3-.096.474 0 .175.033.298.098.363.066.067.161.064.284-.007a.688.688 0 0 0 .282-.32c.065-.14.097-.3.097-.475 0-.174-.034-.296-.1-.361zm-.455.994c-.042-.051-.063-.144-.063-.276 0-.131.02-.248.06-.346a.416.416 0 0 1 .175-.21c.077-.045.134-.042.175.008.042.05.063.143.063.274a.89.89 0 0 1-.061.348.416.416 0 0 1-.174.21c-.077.045-.134.042-.175-.008zm2.654 1.53c-.014-.008-.02-.024-.02-.048a.16.16 0 0 1 .042-.103l.196-.23a.226.226 0 0 1 .044-.04l.031-.017c.022-.012.04-.014.057-.005.014.009.022.025.022.05l.004.925.131-.076c.02-.012.037-.013.052-.006.014.008.02.024.02.047a.125.125 0 0 1-.02.07.135.135 0 0 1-.05.052l-.446.257c-.02.011-.038.015-.05.006-.015-.007-.02-.023-.02-.046s.005-.046.019-.07a.135.135 0 0 1 .05-.053l.162-.094-.003-.81-.131.152a.198.198 0 0 1-.038.032c-.022.013-.039.015-.052.007zm2.997-1.528a.303.303 0 0 0 .033-.124c0-.06-.017-.097-.05-.112-.035-.016-.092 0-.169.044a1.008 1.008 0 0 0-.242.199.175.175 0 0 1-.032.028c-.018.009-.033.01-.045.003-.013-.008-.02-.021-.02-.044 0-.031.013-.063.038-.092.099-.115.208-.207.324-.273a.372.372 0 0 1 .172-.057c.052 0 .094.017.124.052.03.035.046.087.047.155a.53.53 0 0 1-.051.218c-.034.075-.074.15-.12.22a7.452 7.452 0 0 1-.181.25 5.088 5.088 0 0 0-.152.21.654.654 0 0 0-.06.113l.484-.28c.02-.011.038-.013.052-.006.014.01.022.024.022.047a.133.133 0 0 1-.022.07.14.14 0 0 1-.05.052l-.558.322c-.023.014-.045.017-.062.008-.015-.009-.023-.027-.023-.056a.454.454 0 0 1 .045-.191c.029-.067.066-.132.108-.194.041-.062.098-.139.165-.229.059-.076.105-.14.139-.189a.92.92 0 0 0 .084-.144zm2.746-1.204c0 .106-.036.21-.108.31a.897.897 0 0 1-.275.243.79.79 0 0 1-.305.109c-.014.001-.024-.002-.032-.01s-.012-.02-.012-.038c0-.022.007-.044.02-.068a.126.126 0 0 1 .046-.052.106.106 0 0 1 .032-.011.598.598 0 0 0 .226-.082.769.769 0 0 0 .185-.149.25.25 0 0 0 .07-.172c0-.133-.1-.14-.308-.02l-.023.013c-.02.011-.036.014-.05.005-.013-.008-.02-.023-.02-.045s.007-.044.02-.07a.141.141 0 0 1 .05-.052l.009-.005a.76.76 0 0 0 .215-.173.28.28 0 0 0 .07-.181c0-.05-.017-.078-.053-.086s-.092.01-.165.05a.935.935 0 0 0-.22.181.116.116 0 0 1-.03.026c-.017.01-.031.01-.043.004-.013-.006-.02-.02-.02-.041 0-.03.011-.059.035-.087.092-.11.19-.196.29-.253.11-.064.2-.088.263-.071.062.018.095.076.095.174 0 .08-.017.152-.052.218a.629.629 0 0 1-.102.146.187.187 0 0 1 .123.014c.045.02.069.08.069.173zm2.605-1.626c-.013-.008-.03-.006-.049.005l-.1.057-.001-.63c0-.031-.009-.053-.026-.063-.018-.01-.04-.008-.068.008l-.029.017a.176.176 0 0 0-.045.038.2.2 0 0 0-.034.052l-.451.926a.176.176 0 0 0-.02.078v.015c0 .03.01.05.028.06.019.01.04.007.066-.008l.43-.249v.214c0 .024.008.04.022.05.015.007.033.005.054-.007a.153.153 0 0 0 .053-.056.143.143 0 0 0 .023-.074l-.001-.214.1-.057a.14.14 0 0 0 .049-.05.133.133 0 0 0 .02-.068c0-.021-.008-.036-.02-.044zm-.652.353.351-.727.002.524-.353.203zm3.201-1.761a.635.635 0 0 1-.102.339.831.831 0 0 1-.302.281.494.494 0 0 1-.313.082.043.043 0 0 1-.024-.012.06.06 0 0 1-.01-.037.14.14 0 0 1 .02-.069.117.117 0 0 1 .048-.053.09.09 0 0 1 .035-.011.422.422 0 0 0 .226-.062.685.685 0 0 0 .204-.169.335.335 0 0 0 .066-.21c0-.065-.019-.105-.056-.12-.038-.017-.091-.005-.158.033a.788.788 0 0 0-.216.195l-.017.02a.128.128 0 0 1-.04.034c-.027.017-.053.021-.073.013-.02-.008-.03-.028-.03-.06l.001-.043.065-.48a.199.199 0 0 1 .028-.082.165.165 0 0 1 .058-.06l.462-.267c.02-.011.037-.013.05-.004.015.007.023.022.023.046a.143.143 0 0 1-.021.07.138.138 0 0 1-.052.053l-.409.236-.042.343a.907.907 0 0 1 .232-.192.348.348 0 0 1 .187-.059.145.145 0 0 1 .12.07c.026.042.04.1.04.175zm2.747-1.904a.301.301 0 0 0-.167.05.668.668 0 0 0-.175.142.814.814 0 0 0-.094.13.976.976 0 0 1 .066-.28.47.47 0 0 1 .209-.238.398.398 0 0 1 .179-.059.069.069 0 0 0 .027-.01.125.125 0 0 0 .047-.05.128.128 0 0 0 .018-.063.055.055 0 0 0-.01-.033.03.03 0 0 0-.024-.014.45.45 0 0 0-.247.073.686.686 0 0 0-.236.225.992.992 0 0 0-.13.295c-.026.102-.04.2-.04.292.002.381.132.5.387.352a.685.685 0 0 0 .184-.154.736.736 0 0 0 .12-.203.58.58 0 0 0 .043-.211.318.318 0 0 0-.042-.177.143.143 0 0 0-.114-.067zm-.037.188c.033.022.05.067.05.135a.33.33 0 0 1-.025.123.452.452 0 0 1-.07.12.394.394 0 0 1-.107.09c-.137.08-.216.035-.241-.137a.565.565 0 0 1 .248-.308c.064-.037.112-.045.145-.023zm13.037-9.111-12.796 7.387-2.575-1.5-.013-3.496c0-.596.418-1.315.935-1.616l10.927-6.306c.258-.147.491-.166.663-.068l2.563 1.494c.172.092.283.301.283.602l.012 3.503z" class="color1d2943 svgShape"/><path fill="#dedffb" d="m30.465 49.435-2.573-1.497c-.172-.096-.273-.303-.273-.596l-.03-15.791 2.577 1.496 1.027 15.635c0 .293-.895.657-.728.753z" class="colordedffb svgShape"/><path fill="#82c6e0" d="m30.165 33.049-2.576-1.497 12.794-7.387 2.576 1.497z" class="color82c6e0 svgShape"/><path fill="#f3f1fc" d="m42.959 25.662.027 15.788c.002.594-.416 1.317-.932 1.615l-10.923 6.307c-.517.298-.937.058-.939-.535l-.027-15.788 12.794-7.387z" class="colorf3f1fc svgShape"/><path fill="#1d2943" d="M42.56 21.513a.702.702 0 0 0-.437.055.665.665 0 0 1 .437-.055zm.116.049a.392.392 0 0 0-.116-.05c.024.007.049.013.067.02l.05.03z" class="color1d2943 svgShape"/><path fill="#1d2943" d="m42.96 25.661-12.796 7.387-2.575-1.5-.013-3.496c0-.596.418-1.315.935-1.616l10.927-6.306c.258-.147.491-.166.663-.068l2.526 1.47a.665.665 0 0 0-.504.037.702.702 0 0 1 .437-.056c.043.012.08.024.116.049.166.098.27.301.27.596l.013 3.503z" class="color1d2943 svgShape"/><path fill="#1d2943" d="M42.56 21.513a.702.702 0 0 0-.437.055.665.665 0 0 1 .437-.055zm.116.049a.392.392 0 0 0-.116-.05c.024.007.049.013.067.02l.05.03z" class="color1d2943 svgShape"/><path fill="#4c5c75" d="M42.677 21.563c-.172-.101-.404-.086-.667.06l-10.924 6.309c-.515.298-.935 1.02-.93 1.617l.01 3.498-2.578-1.496-.01-3.498c0-.597.415-1.32.935-1.618l10.924-6.308c.258-.147.495-.162.662-.066l2.578 1.502z" class="color4c5c75 svgShape"/><path fill="#1d2943" d="M42.01 21.626c.517-.299.937-.06.94.535l.009 3.5-12.794 7.387-.01-3.5c-.002-.594.416-1.318.933-1.616l10.922-6.306z" class="color1d2943 svgShape"/><path fill="#c9cee2" d="m38.233 30.369-2.606 4.763-.46-.265c-.08-.049-.136-.16-.136-.307l-.006-2.489c0-.301.209-.67.467-.817l1.942-1.125c.135-.074.252-.08.338-.03l.461.27z" class="colorc9cee2 svgShape"/><path fill="#b0b8cf" d="M37.895 30.4c.261-.152.475-.03.475.27l.007 2.491a1.04 1.04 0 0 1-.472.819l-1.94 1.12c-.261.15-.475.03-.475-.272l-.007-2.49a1.04 1.04 0 0 1 .472-.819l1.94-1.12z" class="colorb0b8cf svgShape"/><path fill="#57b3fe" d="m42.215 28.07-2.605 4.763-.461-.264c-.08-.05-.135-.16-.135-.307l-.007-2.49c0-.3.203-.67.468-.817l1.942-1.124c.129-.074.252-.08.338-.031l.46.27z" class="color57b3fe svgShape"/><path fill="#5094ff" d="M41.877 28.1c.261-.15.474-.03.475.272l.007 2.49a1.04 1.04 0 0 1-.472.819l-1.94 1.12c-.262.15-.475.03-.476-.272l-.007-2.49c0-.301.211-.668.473-.819l1.94-1.12z" class="color5094ff svgShape"/><path fill="#febc1f" d="M34.398 35.457c0 .302-.209.67-.473.818l-1.936 1.124c-.166.093-.313.08-.4-.018.019.018.037.037.056.05l-.455-.271c-.086-.05-.141-.148-.141-.301v-2.496c-.006-.295.203-.663.467-.817l1.942-1.118c.129-.074.246-.086.332-.031l.448.258c.093.043.154.154.154.313l.006 2.49z" class="colorfebc1f svgShape"/><path fill="#ffd06c" d="m34.257 32.661-2.612 4.77-.455-.271c-.086-.05-.141-.148-.141-.301v-2.496c-.006-.295.203-.663.467-.817l1.942-1.118c.129-.074.246-.086.332-.031l.467.264z" class="colorffd06c svgShape"/><path fill="#b0b8cf" d="M33.916 37.777c.262-.15.475-.03.476.272l.007 2.49c0 .3-.211.668-.473.819l-1.94 1.12c-.261.15-.474.03-.475-.272l-.007-2.49c-.001-.301.21-.668.473-.82l1.939-1.119z" class="colorb0b8cf svgShape"/><path fill="#c9cee2" d="M34.256 37.744c-.091-.05-.208-.04-.339.035l-1.941 1.117c-.263.152-.475.52-.47.819l.005 2.492c0 .147.056.253.136.303l-.46-.268c-.08-.05-.136-.151-.136-.303l-.005-2.492c-.005-.298.207-.667.47-.819l1.941-1.117c.131-.076.248-.086.334-.035l.465.268zm0 5.082-2.611 4.763-.455-.264c-.086-.05-.141-.154-.141-.308v-2.489c-.006-.3.203-.67.467-.817l1.942-1.118c.129-.074.246-.086.332-.037l.467.27z" class="colorc9cee2 svgShape"/><path fill="#b0b8cf" d="M33.916 42.858c.262-.151.475-.03.476.271l.007 2.49c0 .302-.211.668-.473.82l-1.94 1.12c-.261.15-.474.029-.475-.272l-.007-2.49c-.001-.301.21-.668.473-.82l1.939-1.12zm3.979-7.361c.261-.151.475-.03.475.271l.007 2.49c.001.302-.21.668-.472.82l-1.94 1.12c-.261.15-.475.029-.475-.272l-.007-2.49c-.001-.301.21-.668.472-.82l1.94-1.12z" class="colorb0b8cf svgShape"/><path fill="#c9cee2" d="M38.234 35.463c-.086-.05-.207-.04-.339.036l-1.94 1.117c-.264.151-.471.52-.471.819l.005 2.492c0 .146.056.252.137.303l-.46-.268c-.081-.05-.137-.152-.137-.303l-.005-2.492c0-.298.207-.668.47-.82l1.941-1.116c.132-.076.253-.086.339-.036l.46.268z" class="colorc9cee2 svgShape"/><path fill="#b0b8cf" d="M37.895 35.497c.261-.151.475-.03.475.271l.007 2.49c.001.302-.21.668-.472.82l-1.94 1.12c-.261.15-.475.029-.475-.272l-.007-2.49c-.001-.301.21-.668.472-.82l1.94-1.12z" class="colorb0b8cf svgShape"/><path fill="#c9cee2" d="M38.234 35.463c-.086-.05-.207-.04-.339.036l-1.94 1.117c-.264.151-.471.52-.471.819l.005 2.492c0 .146.056.252.137.303l-.46-.268c-.081-.05-.137-.152-.137-.303l-.005-2.492c0-.298.207-.668.47-.82l1.941-1.116c.132-.076.253-.086.339-.036l.46.268zm0 5.083-2.607 4.763-.46-.264c-.08-.056-.136-.154-.136-.308l-.006-2.489c0-.3.209-.67.467-.817l1.942-1.118c.135-.08.252-.087.338-.037l.461.27z" class="colorc9cee2 svgShape"/><path fill="#b0b8cf" d="M37.895 40.578c.261-.151.475-.03.475.271l.007 2.49c.001.301-.21.668-.472.82l-1.94 1.119c-.261.151-.475.03-.475-.271l-.007-2.49c-.001-.302.21-.668.472-.82l1.94-1.12zm-3.979-2.784c.262-.151.475-.03.476.271l.007 2.49c0 .302-.211.668-.473.82l-1.94 1.12c-.261.15-.474.03-.475-.272l-.007-2.49c-.001-.301.21-.668.473-.82l1.939-1.119z" class="colorb0b8cf svgShape"/><path fill="#c9cee2" d="M34.256 37.763c-.091-.05-.208-.045-.339.03l-1.941 1.123c-.263.151-.475.515-.47.819l.005 2.487c0 .151.056.257.136.303l-.46-.263c-.08-.05-.136-.157-.136-.308l-.005-2.487c-.005-.304.207-.668.47-.82l1.941-1.121c.131-.076.248-.081.334-.03l.465.267z" class="colorc9cee2 svgShape"/><path fill="#78e75a" d="M42.388 22.753v2.11c0 .255-.18.567-.407.7l-10.84 6.262c-.16.085-.293.066-.36-.048-.037-.047-.046-.104-.046-.189l-.01-2.1c0-.265.18-.577.407-.7l10.84-6.262a.496.496 0 0 1 .142-.047c.15-.028.274.076.274.274z" class="color78e75a svgShape"/><path d="m33.185 38.837.002.885.775-.448.001.505-.774.447.002.879-.468.271-.003-.879-.78.45-.001-.505.78-.45-.003-.884zm.306 5.088.302.172-.578.995.527.3-.274.476-.528-.3-.528.915-.302-.172.528-.915-.527-.301.275-.476.532.298zm4.117-6.242-1.356.78v-.527l1.351-.781z" class="color000 svgShape"/><path fill="#df3260" d="m42.634 40.762-.012-4.618-.007-2.586c0-.008-.004-.012-.004-.02a.481.481 0 0 0-.041-.193c-.01-.02-.029-.03-.042-.046-.02-.027-.038-.059-.066-.075h.003l-.506-.292c-.09-.056-.222-.046-.369.035l-2.118 1.223c-.288.167-.515.566-.515.895l.018 6.728.002.478v.002a.5.5 0 0 0 .04.207.3.3 0 0 0 .113.13l.182.102.317.183-.004-.005c.029.018.064.02.1.026a.384.384 0 0 0 .272-.055l2.12-1.223c.178-.102.325-.294.417-.503a.98.98 0 0 0 .1-.393z" class="colordf3260 svgShape"/><path fill="#df3260" d="M39.567 42.863c.018.018.037.037.061.05a.133.133 0 0 1-.03-.02.074.074 0 0 1-.031-.03z" class="colordf3260 svgShape"/><path fill="#df3260" d="M42.633 40.761c0 .332-.227.731-.516.897l-2.12 1.223c-.148.086-.277.093-.369.031a.223.223 0 0 1-.061-.049.074.074 0 0 0 .03.03l-.467-.264c-.098-.061-.153-.172-.153-.338l-.019-7.208c0-.326.228-.726.517-.892l2.114-1.223c.147-.08.276-.092.368-.036l.486.282c.104.05.172.166.172.344l.018 7.203z" class="colordf3260 svgShape"/><path fill="#df3260" d="M39.567 42.863c.018.018.037.037.061.05a.133.133 0 0 1-.03-.02.074.074 0 0 1-.031-.03z" class="colordf3260 svgShape"/><path fill="#f45170" d="M42.465 33.225c-.096-.056-.228-.046-.37.035l-2.122 1.223c-.283.167-.516.566-.516.895l.02 7.208c0 .162.06.278.152.329l-.5-.288c-.097-.056-.152-.172-.152-.334l-.02-7.208c0-.329.227-.728.515-.895l2.118-1.223c.147-.081.278-.091.37-.035l.505.293z" class="colorf45170 svgShape"/><path fill="#df3260" d="M42.094 33.261c.287-.165.52-.033.52.296l.02 7.205c.001.329-.23.73-.517.895l-2.119 1.223c-.286.165-.519.033-.52-.296l-.02-7.205c0-.33.23-.73.517-.894l2.119-1.224z" class="colordf3260 svgShape"/><path fill="#fff" d="m40.08 37.806 1.929-1.114.001.481-1.929 1.114zm.004 1.643-.001-.481 1.929-1.114.001.481z" class="colorfff svgShape"/><path d="m37.613 42.253.001.522-1.367.789-.001-.522z" class="color000 svgShape"/><ellipse cx="36.934" cy="43.599" class="color000 svgShape" rx=".32" ry=".185" transform="rotate(-59.838 36.934 43.599)"/><path d="M36.93 41.954c.123-.07.227-.017.227.124a.507.507 0 0 1-.226.398c-.128.074-.227.012-.228-.135 0-.142.098-.313.227-.387z" class="color000 svgShape"/><path fill="#febc1f" d="M33.916 32.696c.262-.15.475-.03.476.272l.007 2.49c0 .301-.211.668-.473.819l-1.94 1.12c-.261.15-.474.03-.475-.272l-.007-2.49c-.001-.3.21-.668.473-.819l1.939-1.12z" class="colorfebc1f svgShape"/><path fill="#1d2943" d="M34.897 28.988V29c0 .034-.01.07-.032.106a.213.213 0 0 1-.076.08l-.019.011c-.03.017-.055.02-.076.008-.022-.012-.032-.036-.032-.07v-.013c0-.034.01-.07.031-.106a.214.214 0 0 1 .077-.08l.018-.011c.03-.017.055-.02.077-.008.02.012.032.036.032.07zm-1.583.327a.422.422 0 0 1 .051.222.804.804 0 0 1-.129.427 1.06 1.06 0 0 1-.382.355c-.151.088-.285.123-.398.106a.05.05 0 0 1-.029-.016c-.007-.007-.01-.022-.01-.043a.17.17 0 0 1 .078-.142.083.083 0 0 1 .042-.012.558.558 0 0 0 .294-.082.884.884 0 0 0 .267-.221.449.449 0 0 0 .09-.28c-.001-.086-.027-.14-.077-.161-.05-.021-.12-.006-.207.044a1.006 1.006 0 0 0-.305.28.16.16 0 0 1-.045.04c-.036.02-.066.026-.09.016-.025-.01-.038-.033-.038-.072 0-.018.002-.036.004-.054l.082-.615a.233.233 0 0 1 .102-.17l.595-.343c.024-.014.044-.016.06-.007.016.01.025.028.025.054s-.008.055-.025.082a.166.166 0 0 1-.06.062l-.533.308-.056.47c.092-.108.196-.196.307-.26a.447.447 0 0 1 .237-.075.181.181 0 0 1 .15.087zm-1.19 1.31a.161.161 0 0 1-.025.082.164.164 0 0 1-.059.061l-.572.33c-.024.015-.044.017-.06.007-.015-.008-.023-.027-.023-.053a.17.17 0 0 1 .023-.082.159.159 0 0 1 .059-.062l.216-.125-.003-1.067-.182.208a.222.222 0 0 1-.045.04c-.025.014-.045.016-.06.008-.016-.01-.024-.028-.024-.057 0-.041.016-.083.05-.121l.252-.297a.234.234 0 0 1 .054-.047l.038-.022c.026-.015.049-.017.067-.007.018.01.027.03.027.06l.004 1.199.179-.103c.023-.014.043-.016.06-.007.016.01.024.028.024.055zm2.395-2.67a.337.337 0 0 1-.019.108l-.523 1.54a.22.22 0 0 1-.083.105c-.025.015-.046.017-.063.008-.016-.01-.026-.029-.026-.058 0-.017.004-.038.012-.06l.503-1.45-.666.384c-.022.014-.043.016-.06.006-.015-.009-.024-.027-.024-.054a.17.17 0 0 1 .024-.084.165.165 0 0 1 .06-.063l.756-.437c.03-.018.057-.021.078-.011.02.01.031.032.031.067zm1.564.013a.804.804 0 0 1-.13.427 1.06 1.06 0 0 1-.382.356c-.15.087-.284.123-.397.105a.05.05 0 0 1-.03-.016c-.006-.007-.01-.022-.01-.043a.17.17 0 0 1 .079-.142.09.09 0 0 1 .04-.012.553.553 0 0 0 .296-.082.891.891 0 0 0 .266-.22.449.449 0 0 0 .09-.28c0-.087-.026-.141-.076-.162-.05-.021-.12-.006-.208.044a1 1 0 0 0-.304.28.164.164 0 0 1-.046.04c-.035.02-.066.026-.09.016-.024-.01-.037-.033-.037-.072a.48.48 0 0 1 .003-.054l.082-.615a.237.237 0 0 1 .034-.1.198.198 0 0 1 .068-.07l.596-.343c.023-.014.043-.016.06-.007.016.01.024.028.024.055a.16.16 0 0 1-.024.081.166.166 0 0 1-.06.062l-.534.309-.056.47a1.14 1.14 0 0 1 .308-.261.447.447 0 0 1 .236-.075.181.181 0 0 1 .15.087.422.422 0 0 1 .052.222z" class="color1d2943 svgShape"/><path fill="#7e5af2" d="M43.73 6.923c-.15 2.34-.4 4.71-.75 7.1-.07.46-.37.95-.75 1.19-.69.44-1.38.87-2.07 1.28l-1.14 2.83-1.57-.91-.19-.25c-.49.27-.98.53-1.47.78-.494.247-.714-.154-.53.03l-1.56-.91a.492.492 0 0 1-.23-.36c-.324-2.07-.503-2.873-.79-6.21 0-.623.333-1.165.76-1.44a82.097 82.097 0 0 1 7.96-4.6c.21-.11.39-.11.53-.03l1.53.89c.01 0 .02.01.03.01 0 .01.01.01.01.01.16.1.25.3.23.59z" class="color7e5af2 svgShape"/><path fill="#7e5af2" d="m39.017 19.324-1.566-.91-1.149-1.501 1.566.91z" class="color7e5af2 svgShape"/><path fill="#986ff9" d="M42.972 6.36c.45-.227.79.027.756.563a84.624 84.624 0 0 1-.747 7.102c-.068.46-.375.953-.747 1.189a92.04 92.04 0 0 1-2.077 1.283l-1.14 2.827-1.15-1.5c-.695.388-1.387.76-2.074 1.114-.376.191-.686.056-.755-.328a61.972 61.972 0 0 1-.787-6.213c-.037-.495.3-1.142.751-1.436a83.759 83.759 0 0 1 7.97-4.602z" class="color986ff9 svgShape"/><path fill="#b28afd" d="M43.495 6.333c-.136-.079-.316-.076-.523.026-2.983 1.518-7.183 3.985-8.049 4.658-.396.308-.71.896-.671 1.378a63.06 63.06 0 0 0 .657 5.458l.13.756a.484.484 0 0 0 .222.36l-1.565-.91c-.113-.066-.192-.188-.224-.36a62.55 62.55 0 0 1-.788-6.21c-.033-.478.276-1.123.753-1.437a83.816 83.816 0 0 1 7.968-4.603c.206-.102.39-.105.523-.027l1.567.91z" class="colorb28afd svgShape"/><path fill="#fff" d="M40.827 12.123c-.162-.128-.392-.107-.685.062a1.73 1.73 0 0 0-.683.728 2.14 2.14 0 0 0-.237.985c0 .34.082.578.242.707.161.128.391.107.685-.061.292-.17.522-.415.683-.728.158-.314.238-.644.237-.985-.001-.34-.083-.58-.242-.708zm-1.052 1.984c-.088-.086-.135-.238-.135-.452a1.388 1.388 0 0 1 .132-.603.917.917 0 0 1 .37-.418c.159-.092.284-.096.373-.011.09.085.134.236.136.449 0 .214-.044.418-.134.605a.926.926 0 0 1-.37.419c-.158.092-.283.094-.372.01zm.57-4.229c0 .05-.014.109-.04.174l-2.281 5.543a.557.557 0 0 1-.077.133c-.057.074-.157.15-.24.109-.082-.042-.067-.177-.03-.263l2.296-5.578a.404.404 0 0 1 .167-.208c.06-.035.108-.043.147-.029.038.015.058.054.058.12zm-1.83 1.13c-.16-.129-.391-.108-.683.06-.294.17-.524.415-.683.73-.16.313-.24.643-.239.984.001.341.083.578.244.708.16.129.391.108.684-.062a1.72 1.72 0 0 0 .682-.727c.16-.313.24-.645.239-.986-.001-.34-.082-.578-.243-.706zm-1.05 1.983c-.09-.086-.135-.236-.136-.45 0-.215.044-.418.133-.605a.915.915 0 0 1 .37-.418c.159-.092.285-.096.373-.011.09.085.134.236.134.45.002.214-.044.417-.13.604a.924.924 0 0 1-.373.419c-.159.092-.283.095-.372.01z" class="colorfff svgShape"/></svg></svg>