<svg xmlns="http://www.w3.org/2000/svg" width="256" height="256"><svg xmlns="http://www.w3.org/2000/svg" width="256" height="256" viewBox="0 0 51 51"><path fill="#e11226" d="m25.774 29.087-1.8-1.052c-.179-.11-.288-.328-.288-.64l-.034-13.149c-.006-.627.431-1.388.979-1.704L43.516 1.639c.277-.156.525-.173.703-.07l1.795 1.058-19.246 25.68c0 .31-1.172.676-.994.78z" class="colore11226 svgShape"/><path fill="#f34b58" d="M45.317 2.694c.544-.313.986-.061.988.566l.037 13.151c.002.627-.438 1.389-.981 1.703L26.472 29.019c-.543.314-.986.062-.988-.565l-.037-13.152c-.002-.627.438-1.388.981-1.702L45.317 2.694z" class="colorf34b58 svgShape"/><path fill="#e11226" d="M43.356 15.375c-.055.316-.145.496-.29.58a.385.385 0 0 1-.044.022c.11-.196.206-.372.334-.602z" class="colore11226 svgShape"/><g fill="#000" class="colore11226 svgShape"><path d="M41.9 14.325c.162.195.364.353.478.604.058.127-.058.427-.07.638-.019.282-.182.381-.348.477-.048.028-.136.027-.14-.007-.026-.2-.205-.115-.315-.152-.034-.01-.086.01-.14.042a.972.972 0 0 0-.106.07c-.068.048-.13.14-.196.207-.1.101-.203.192-.305.288-.025-.089-.047-.179-.074-.266-.018-.062-.048-.113-.065-.176-.059-.239-.003-.373.229-.61a.934.934 0 0 0 .152-.242c.118-.251.403-.584.542-.665a.24.24 0 0 1 .008-.004c.102.106.168.175.233.246.023-.021.045-.045.067-.066l.05-.384zm-1.15-.463.064-.023-.103.742c-.147-.033-.248-.054-.36-.08l.4-.639zm1.12-2.853c-.023.109-.018.271-.089.391-.078.13-.22.22-.338.33l.004-.045.423-.676zm-2.089 3.505c.2.047.435.042.465.337l-.081.105-.384-.442zm-2.14 2.332.073-.004-.18.88a2.745 2.745 0 0 0-.104.04c0-.145-.03-.283.006-.436.037-.154.135-.32.205-.48z" class="color000 svgShape"/><path d="M43.547 7.528a.447.447 0 0 0-.208.06c-.067.037-.126.118-.193.178a.28.28 0 0 0-.067.037.556.556 0 0 1-.074.044c-.015.008-.037.023-.052.03-.082.052-.156.082-.186.06-.163-.156-.423.148-.601.081-.067-.022-.126-.007-.186.03a1.321 1.321 0 0 0-.267.245c-.09.096-.178.193-.282.245-.112.067-.149.074-.141-.037.007-.134-.045-.156-.104-.12-.037.016-.067.053-.097.09a.793.793 0 0 1-.17.156.586.586 0 0 1-.216.06c-.067.014-.134.022-.208.066a.133.133 0 0 0-.052.037l-.022-.052.186-.23a.511.511 0 0 1-.023-.06c-.14.03-.282.053-.46.09a308 308 0 0 1-1.062 1.128.962.962 0 0 1 .09.104l-.424.245c.045.112.119.179.104.283-.007.11-.037.274-.17.356-.023.007-.038.015-.06.022.082-.133.134-.646.074-.705-.007-.008-.037.007-.06.022-.029.015-.059.037-.059.045-.037.156-.059.311-.089.46a.706.706 0 0 0-.215.082c-.252.148-.512.43-.78.698 0-.045-.007-.09-.007-.097-.097.163-.2.327-.304.49a.857.857 0 0 1-.127.141c-.044-.037-.06-.096-.089-.156l.32-.223c.007-.037.014-.066.014-.103-.208.007-.408-.045-.63.03a.744.744 0 0 0-.112.051c-.193.112-.364.334-.475.624-.075.193-.156.423-.275.579-.186.238-.163.371-.111.542.081-.082.14-.149.208-.215.044.089.081.17.118.252.023-.007.045-.007.06-.015.052-.17.133-.371.14-.52 0-.148.127-.564.268-.69.022-.007.045.007.067.007-.253.594-.253.602.178.416-.074.075-.156.141-.186.171-.089.208-.133.408-.23.52-.126.148-.29.223-.438.326-.007-.118-.015-.185-.022-.252l-.052.03c-.007.096-.007.193-.015.26-.104.155-.193.29-.275.423-.096.133-.185.267-.252.356.037.097.067.193.119.327l-.379.215c0 .245 0 .245.119.408.015.023.007.082-.008.12-.051.163-.103.34-.193.49-.193.333-.29.616-.252.927.06.476.215.654.49.49a1.19 1.19 0 0 0 .297-.252.232.232 0 0 1 .082-.067c.14-.082.297-.037.319.09.022.118.067.222.096.34.03.127.104.253.075.394-.141.61.148.854.245 1.255.007.037.081.037.133 0 .134-.126.283-.26.364-.416.119-.237.223-.512.253-.735.014-.148.044-.245.111-.386.067-.126.148-.334.126-.4-.14-.313.052-.669.253-1.04.104-.208.17-.43.245-.631-.023-.008-.052 0-.09.015-.03.022-.059.052-.089.074-.037.03-.066.06-.089.074-.052.03-.089.015-.104-.09v-.006c.312-.275.594-.587.758-1.033-.067-.03-.12-.052-.141-.066-.037.022-.067.037-.104.06a.164.164 0 0 1-.037.021c-.045.03-.082.045-.104.03-.075-.037-.104-.148-.149-.23.015-.022.037-.037.06-.06.066.03.133.082.222.09.245.014.594-.335.772-.075l.038-.022c.081.245.156.453.23.66.022-.007.044-.007.074-.014.074-.46.2-.898.58-1.24.177.2.385.32.385.683.008-.104.015-.215.022-.349.067.008.104.008.127.022.044.023.089.06.133.09.193-.312.193-.327.052-.52-.089-.126-.074-.17.134-.364-.007.074-.015.134-.015.149.074-.112.149-.246.23-.35.245-.274.357-.586.297-.846-.022-.089 0-.208 0-.312-.037.008-.096.03-.148.045v-.104c.067-.045.148-.119.208-.156.03-.015.052-.022.066-.015.082.022.112.156.171.245.045-.104.037-.178.052-.252.03-.141.06-.297.126-.43.045-.105.179-.18.223-.276.097-.215.164-.438.253-.683v.372l.037-.015c.015-.178.03-.357.037-.52-.141.045-.26.074-.394.111.305-.52.379-.653.594-.772a1.77 1.77 0 0 1 .268-.133l-.023-.06c.156-.163.32-.327.476-.49a.795.795 0 0 1-.112.297c-.185.305-.371.609-.178.846.082-.26.297-.497.223-.735-.015-.03.052-.163.096-.207.223-.216.453-.431.676-.639l-.045-.037c.037-.097.06-.252.112-.282.089-.052.178-.052.274-.074.038-.06.09-.142.134-.216-.17-.015-.334-.03-.512-.037zm-6.772 5.94c.03-.037.067-.074.097-.119.007.03.022.06.037.082.007-.008.015-.023.022-.03.015-.03.037-.06.052-.09.023-.044.045-.08.067-.118.015.03.03.06.045.097.067.081.126.17.208.282l-.646.371c.03-.134.074-.304.118-.475zm.03 1.114a1.181 1.181 0 0 1-.267.103.922.922 0 0 0-.149.045c-.044.03-.066.082-.126.223-.126-.104-.438.163-.386-.275-.252.193-.483.371-.705.55.26-.297.26-.773.601-.973a.362.362 0 0 1 .052-.022l.32.148.036-.067c-.037-.03-.081-.06-.11-.096-.045-.037-.09-.09-.164-.156.222-.052.312.015.542.297 0-.06-.015-.112-.008-.171.008-.037.037-.104.067-.119 0-.007.008-.007.008-.007.03-.015.074-.015.081 0 .015.215.12.193.238.126.06-.037.126-.09.193-.126.022.252-.037.408-.223.52zm.423.764a.287.287 0 0 1-.059-.074v-.007a.161.161 0 0 1-.037-.06c-.022-.037-.03-.074-.045-.104-.03-.089-.06-.193-.089-.282a.644.644 0 0 0-.052-.126c.186.193.409.341.423.72a.279.279 0 0 1-.14-.067zm.557-1.73c-.111.06-.17.06-.14-.126.007-.074-.053-.119-.068-.185-.007-.067-.022-.164.008-.23a.726.726 0 0 1 .163-.171c.03.14.052.215.067.297.015.118.037.23.052.356l-.082.06zm-3.45-.43c.15-.079.284-.15.417-.217-.114.209-.198.327-.263.364-.069.04-.116-.013-.154-.147zm-.513-1.87c.12-.068.238-.112.358-.16.082-.035.164-.067.151.083-.002.018.138-.01.212-.05a.32.32 0 0 0 .02-.01c.068-.039.137-.11.207-.163l.01.05c-.069.108-.13.225-.206.322-.204.264-.128.427-.108.617a.959.959 0 0 1-.028.273c-.018.09-.087.217-.072.27.044.16-.057.277-.16.4-.183.216-.372.424-.552.646a.784.784 0 0 0-.132.255c-.046.147-.073.294-.11.445-.292.15-.36-.074-.43-.266-.035-.095.009-.266.018-.423.002 0-.038.022-.091.053-.02-.126-.035-.255-.06-.375-.043-.225-.172-.285-.392-.158a.948.948 0 0 0-.08.048c-.162.095-.258.06-.323-.069l.341-.424-.07-.032c.213-.307.44-.543.703-.695.037-.02.074-.04.112-.058.072-.041.142-.196.218-.256a3.523 3.523 0 0 1 .464-.322z" class="color000 svgShape"/></g><path fill="#e11226" d="m30.399 15.19.007-.005.002.003-.01.003.007-.006z" class="colore11226 svgShape"/><path fill="#e11226" d="m30.979 13.89.795-.237a1.394 1.394 0 0 1-.283.229c-.206.118-.364.093-.512.008zm1.134-1.516c.134-.078.264-.126.408-.143-.245.432-.637.768-.768 1.261l-.482.278.23-.355c-.082.04-.156.096-.22.107-.102.017-.195.002-.368.001.11-.133.181-.258.24-.292a.078.078 0 0 1 .012-.005c.092-.036.172.008.257.016l.038-.08-.258-.058c.395-.338.66-.585.91-.73zm-1.75 1.9c.067.012.121.023.174.034l-.006.071-.506.293c.041-.14.083-.2.125-.224.035-.02.07-.015.106-.01.034.005.068.01.103-.01a.14.14 0 0 0 .005-.003v-.152zm-.496.54c.053-.03.113-.033.185-.008a.297.297 0 0 0 .26-.02.71.71 0 0 0 .227-.248l.167.406-.3.241-.007.005.006-.005c-.123.038-.244.078-.367.117l.008-.058c.053-.044.106-.086.137-.113l-.253-.036a.041.041 0 0 0-.012.005c-.021.012-.045.044-.07.077a.322.322 0 0 1-.081.083c-.035.02-.074.015-.115-.045.06-.217.126-.35.215-.401z" class="colore11226 svgShape"/><path fill="#e11226" d="m33.002 15.62-.33.125.113-.329-.524.431.008.052c.039-.03.08-.057.14-.103-.024.18.028.24.164.162a.646.646 0 0 0 .051-.034c-.03.042-.07.117-.095.131a.467.467 0 0 0-.121.048c-.224.13-.297.444-.424.67-.124.22-.224.469-.289.699-.038.135.009.262.02.444-.075-.094-.12-.233-.18-.207a1.81 1.81 0 0 0-.184.093c-.11.063-.22.144-.314.244-.074.082-.107.317-.108.455 0 .098.086.147.133.216.072-.09.143-.185.215-.276.03-.039.061-.072.123-.141l-.05.4c.077-.029.146-.058.18-.07l.129.385c-.02.001-.105.032-.133-.005-.145-.198-.378-.173-.639-.074-.303.113-.327-.225-.49-.339-.083-.058-.145-.155-.242-.264v.184c-.02.005-.039.016-.044.009-.114-.123-.234-.24-.333-.38a.408.408 0 0 1-.066-.272c.058-.488-.203-.607-.408-.807-.176-.167-.392-.185-.709-.086-.022.013-.04.174-.09.203-.022.013-.05 0-.088-.066l-.163.403c-.112-.02-.201-.032-.29-.049-.197-.034-.197-.088 0-.347.026-.034.04-.081.065-.132l-.302.097.006-.086c.083-.06.167-.116.28-.194l-.216-.083c.19-.325.253-.44.395-.523.11-.063.269-.107.572-.213.13-.045.258-.107.385-.18.116-.067.232-.144.352-.228a.934.934 0 0 1 .067-.043c.175-.101.358-.133.536-.192.06-.02.108.015.167.002.058-.012.121-.049.218-.092a1.385 1.385 0 0 1-.08-.07c.085-.025.17-.048.257-.075a.606.606 0 0 0 .118-.047c.07-.041.117-.108.093-.25l.056-.05.073.234c.028-.116.07-.265.063-.265-.173.004-.044-.221-.055-.337-.011-.11.014-.173.07-.205.04-.024.099-.03.172-.024l-.214.248c.123.123.23.229.338.333.149-.259.141-.248-.016-.329-.048-.023-.09-.115-.071-.19.018-.069.115-.163.184-.226a.77.77 0 0 1 .135-.102c.244-.141.408.007.6.032.131.017.204.172.324.287l-.25.144c.04.052.088.12.154.211l-.164.041c.013.042.023.073.038.113h-.434c.048-.106.144-.263.172-.4.018-.096-.244-.084-.38-.006a.246.246 0 0 0-.034.024c-.018.158.066.278-.174.487-.147.128-.263.429-.369.659-.109.238-.016.313.122.325.056.007.116.017.18-.01.211-.095.216.159.352.239.098-.403.125-.734.06-1.035l.064-.039c.165-.095.27-.11.33.056.024.067.053.083.084.065.048-.028.1-.14.146-.254l.569.779zm-.845 2.878a.604.604 0 0 1 .108-.049c.348-.115.601-.018.84.13a.456.456 0 0 0 .21.048c.113.009.232.004.351 0 .157-.005.139.11.065.307-.07.19-.087.384-.152.576-.051.152-.139.305-.21.456-.064.13-.142.257-.193.387-.106.262-.163.544-.408.739.058.112.02.204-.111.35-.091.102-.17.277-.215.414a3.602 3.602 0 0 0-.162.665c-.017.134.043.236.074.369a.329.329 0 0 1-.083.07c-.158.09-.33-.027-.31-.35.033-.463.095-.942.147-1.416.022-.188.059-.383.077-.569.016-.172 0-.297-.139-.335-.304-.084-.387-.545-.22-1.026a.631.631 0 0 0 .03-.213.605.605 0 0 1 .301-.553zm9.318-4.634c.032.028.064.06.095.09a.968.968 0 0 1 .17-.13c.237-.137.37.002.496.204-.087.026-.152-.053-.229-.01-.03.018-.064.057-.1.132a1.25 1.25 0 0 1-.16-.037 1.502 1.502 0 0 1-.17-.07c-.055-.027-.105-.064-.16-.095l.058-.084zm-2.952-4.31c-.23.332-.655.579-.57 1.076h-.2c.228-.738.297-.664.77-1.076zm-3.34 3.87c.028.033.058.065.084.103.03.045.05.103.083.143.144.176.144.18-.111.372-.038-.198-.07-.379-.104-.558l.048-.06zm4.579-5.209.173.18-.018.069-.406.087c.113-.154.178-.238.25-.336z" class="colore11226 svgShape"/><path fill="#ffd06c" d="m29.175 17.105.446.07.876-.505.002.85a.366.366 0 0 1-.166.285l-1.449.837-.003-1.368.294-.17zm.124-1.095.375-.494.818-.472.004 1.398-.818.472-.377-.059z" class="colorffd06c svgShape"/><path fill="#f45170" d="m29.674 15.516-.375.494.002.845.377.059.818-.472v.228l-.875.505-.446-.07-.294.17.003 1.367-.198.114-.004-1.367-.292.168-.444.585-.874.505v-.228l.815-.471.374-.493-.003-.844-.375-.06-.815.47v-.228l.872-.504.447.07.292-.168-.004-1.367.198-.115.004 1.367.294-.17.445-.584.875-.506.001.228-.818.472zm-.571 1.402-.002-.742-.644.371.002.743.644-.372" class="colorf45170 svgShape"/><path fill="#ffd06c" d="m28.459 17.29-.002-.743.644-.371.002.742zm1.862-3.417c.092-.053.168-.012.168.093l.002.85-.875.506-.445.585-.294.17-.004-1.368 1.448-.836zm-1.931 3.684.292-.168.004 1.367-1.446.835c-.091.053-.165.01-.165-.094l-.003-.85.874-.505.444-.585zm-.003-1.198-.447-.07-.873.504-.002-.85a.36.36 0 0 1 .164-.284l1.446-.835.004 1.367-.292.168zm-.126 1.096-.374.493-.815.471-.004-1.398.815-.471.375.061z" class="colorffd06c svgShape"/><path fill="#dedffb" d="M45.046 6.134v.172a.3.3 0 0 1-.136.234l-.61.352c-.074.043-.135.009-.135-.077v-.172l.881-.509zM42.23 10.32c.075-.043.135-.008.135.077v.172l-.879.508v-.172c0-.086.06-.19.134-.233l.034-.02.545-.314.03-.018zm2.686-1.55c.075-.044.138-.01.138.075v.172l-.881.509v-.172a.292.292 0 0 1 .134-.233l.033-.02.545-.313.031-.018zm-1.342.773c.075-.043.138-.01.138.076v.172l-.881.509v-.172a.292.292 0 0 1 .134-.233l.031-.018.545-.314.033-.02z" class="colordedffb svgShape"/><path fill="#f8f9fe" d="m44.878 6.558.007 2.229-.545.314-.006-2.229z" class="colorf8f9fe svgShape"/><path fill="#fff" d="M45.15 8.96c.11-.062.196-.016.196.109v.158l-4.15 2.396v-.157a.42.42 0 0 1 .192-.333L45.15 8.96z" class="colorfff svgShape"/><path fill="#dedffb" d="M43.704 6.909v.171a.3.3 0 0 1-.136.235l-.61.352c-.074.043-.135.008-.135-.077v-.172l.881-.51z" class="colordedffb svgShape"/><path fill="#f8f9fe" d="m43.534 7.334.007 2.229-.545.314-.006-2.228zm-1.342.775.007 2.228-.545.315-.006-2.229z" class="colorf8f9fe svgShape"/><path fill="#dedffb" d="M42.358 7.686v.172c0 .086-.06.19-.134.233l-.61.352c-.075.043-.135.008-.135-.077v-.172l.879-.508z" class="colordedffb svgShape"/><path fill="#fff" d="M45.234 5.89c.053.01.027.12-.034.155l-.154.09-.882.508-.46.266-.881.509-.465.268-.88.508-.152.088c-.065.037-.089-.043-.036-.115l1.93-2.615.073-.041 1.94.379zM41.74 7.824l3.043-1.757-1.526-.3-1.517 2.057" class="colorfff svgShape"/><path fill="#dedffb" d="m43.257 5.767 1.526.3-3.043 1.757z" class="colordedffb svgShape"/><path fill="#4c5c75" d="M43.411 6.37c.026.009.039.038.039.085a.263.263 0 0 1-.043.14.38.38 0 0 1-.116.116v.058l-.045.026v-.06a.21.21 0 0 1-.173.012l.051-.1c.04.017.08.017.122 0v-.156c-.053.016-.092.02-.116.01-.025-.01-.038-.037-.038-.084 0-.047.014-.093.042-.138a.339.339 0 0 1 .11-.114v-.04l.045-.026v.042a.226.226 0 0 1 .148-.025l-.046.1a.174.174 0 0 0-.101.012v.153l.003-.002c.054-.017.093-.02.118-.01zm-.066.2a.105.105 0 0 0 .019-.058c0-.018-.005-.03-.015-.035-.01-.006-.03-.004-.059.003v.144a.214.214 0 0 0 .055-.053m-.1-.18v-.14a.181.181 0 0 0-.05.051.105.105 0 0 0-.017.056c0 .017.005.029.014.034.01.005.027.006.053 0" class="color4c5c75 svgShape"/><path fill="#fff" d="M27.225 27.309a.186.186 0 0 1-.025.087.174.174 0 0 1-.063.064l-.47.272c-.028.014-.05.016-.063.008-.02-.01-.028-.03-.028-.058s.008-.057.028-.088a.134.134 0 0 1 .063-.066l.154-.09v-.814l-.121.135a.19.19 0 0 1-.047.041c-.025.014-.047.016-.063.005-.017-.008-.028-.027-.028-.057a.2.2 0 0 1 .053-.127l.208-.244a.177.177 0 0 1 .053-.044l.033-.02c.027-.016.05-.019.068-.008.02.011.03.033.03.063l.003.963.127-.075c.025-.013.044-.016.063-.005.017.008.025.027.025.058zm.929-1.55c-.077-.078-.187-.075-.327.005a.783.783 0 0 0-.325.37c-.074.16-.11.342-.11.537 0 .198.039.338.113.412.074.08.184.077.327-.005a.813.813 0 0 0 .325-.371c.074-.16.11-.341.11-.54 0-.197-.039-.335-.113-.409zm-.506 1.104c-.047-.052-.069-.154-.069-.3a.99.99 0 0 1 .066-.376.446.446 0 0 1 .184-.22c.077-.044.14-.041.182.011.044.055.069.154.069.297a.986.986 0 0 1-.066.38.435.435 0 0 1-.185.22c-.08.046-.14.043-.18-.012zm1.462-1.657c-.074-.077-.186-.075-.327.005a.798.798 0 0 0-.324.371c-.074.16-.11.341-.11.539 0 .195.039.335.113.41.074.08.184.077.327-.006a.798.798 0 0 0 .324-.371c.074-.16.11-.34.11-.539 0-.198-.038-.335-.113-.41zm-.074.516a.986.986 0 0 1-.066.38.435.435 0 0 1-.184.22c-.08.046-.14.044-.181-.011-.047-.053-.07-.154-.07-.3 0-.143.023-.27.067-.374a.428.428 0 0 1 .184-.222c.08-.047.14-.042.182.01.044.056.065.154.068.297zm1.031-1.069c-.074-.077-.187-.074-.327.006a.798.798 0 0 0-.324.37c-.075.16-.11.342-.11.54 0 .197.038.335.112.412.075.077.185.074.327-.008.14-.08.25-.207.325-.372.074-.159.11-.34.11-.538s-.039-.336-.113-.41zm-.327.209c.082-.044.143-.041.184.011.047.055.069.154.069.297a.986.986 0 0 1-.066.38.435.435 0 0 1-.184.22c-.08.046-.14.043-.182-.012-.044-.052-.068-.154-.068-.3 0-.142.022-.269.066-.373a.437.437 0 0 1 .18-.223zm2.501-.45c0 .027-.008.06-.024.087a.209.209 0 0 1-.064.066l-.472.272c-.025.014-.047.017-.064.006-.016-.008-.024-.028-.024-.055 0-.03.008-.058.024-.088a.163.163 0 0 1 .064-.066l.156-.09-.002-.817-.121.137a.28.28 0 0 1-.044.041c-.028.014-.05.017-.064.006-.019-.008-.027-.028-.027-.058a.18.18 0 0 1 .052-.126l.206-.245a.262.262 0 0 1 .055-.047l.033-.019c.025-.014.05-.02.066-.005.022.01.03.03.03.06l.003.962.127-.071c.024-.017.046-.017.063-.008.02.01.027.03.027.057zm.927-1.548c-.074-.08-.184-.077-.325.005a.788.788 0 0 0-.327.371c-.071.157-.11.338-.11.536s.042.338.113.413c.074.077.187.074.327-.009.14-.08.25-.203.324-.368a1.28 1.28 0 0 0 .113-.542c0-.197-.041-.332-.115-.406zm-.322 1.113c-.08.047-.14.044-.184-.008-.044-.053-.066-.154-.069-.3 0-.143.022-.27.066-.377a.448.448 0 0 1 .184-.22c.08-.046.14-.04.185.009.044.055.066.156.066.3a.923.923 0 0 1-.066.376.409.409 0 0 1-.182.22zm1.281-1.669c-.077-.077-.187-.074-.327.009a.795.795 0 0 0-.327.368 1.31 1.31 0 0 0-.107.539c0 .198.038.338.11.412.074.077.187.074.327-.008.14-.08.25-.204.327-.369a1.28 1.28 0 0 0 .11-.541c-.003-.195-.039-.335-.113-.41zm-.324 1.116c-.08.047-.14.047-.182-.008-.046-.052-.068-.154-.071-.3a.94.94 0 0 1 .069-.376.43.43 0 0 1 .181-.22c.08-.047.14-.044.184.008.044.055.066.157.066.3a.923.923 0 0 1-.066.376.409.409 0 0 1-.181.22zm1.28-1.668c-.076-.077-.186-.074-.326.008a.81.81 0 0 0-.328.368c-.071.163-.11.341-.107.54 0 .197.036.337.11.412.077.076.187.074.327-.009a.783.783 0 0 0 .327-.368c.075-.16.11-.344.11-.539-.002-.198-.038-.338-.112-.412zm-.324 1.116c-.08.047-.14.047-.181-.008-.047-.053-.069-.157-.069-.3s.02-.27.066-.377a.43.43 0 0 1 .182-.22c.082-.046.14-.043.184.009.044.057.066.156.066.3a.971.971 0 0 1-.066.376.407.407 0 0 1-.182.22zm2.499-1.355a.164.164 0 0 1-.027.088.155.155 0 0 1-.064.063l-.47.272c-.024.014-.046.017-.063.008-.016-.01-.025-.03-.025-.057 0-.028.009-.058.022-.088a.183.183 0 0 1 .064-.066l.159-.091-.003-.814-.12.135a.152.152 0 0 1-.047.041c-.025.017-.047.017-.064.008-.016-.01-.024-.03-.024-.06a.19.19 0 0 1 .052-.127l.206-.244a.162.162 0 0 1 .055-.044l.03-.02c.028-.016.052-.019.069-.008.02.011.03.033.03.064l.003.962.126-.075c.025-.013.047-.016.064-.005.019.008.027.027.027.058zm.926-1.55c-.074-.078-.184-.075-.324.005a.788.788 0 0 0-.327.37c-.074.16-.11.342-.11.54s.038.338.113.412c.074.077.184.074.327-.008a.804.804 0 0 0 .324-.369 1.24 1.24 0 0 0 .11-.541c0-.198-.038-.335-.113-.41zm-.321 1.115c-.08.047-.14.044-.184-.008-.044-.055-.07-.157-.07-.302 0-.143.023-.27.067-.374a.455.455 0 0 1 .184-.223c.08-.044.137-.041.184.011.044.055.066.154.066.297a.986.986 0 0 1-.066.38.444.444 0 0 1-.181.22zm1.278-1.668c-.077-.077-.184-.074-.324.005a.788.788 0 0 0-.327.371 1.3 1.3 0 0 0-.11.536c.002.198.038.339.112.416.074.076.184.074.327-.009a.791.791 0 0 0 .325-.368c.074-.162.112-.344.11-.542 0-.198-.036-.335-.113-.41zm-.322 1.116c-.08.047-.14.044-.184-.008-.044-.055-.069-.157-.069-.303 0-.143.022-.27.066-.374a.455.455 0 0 1 .185-.222c.08-.044.137-.041.181.01.047.056.069.155.069.298a.986.986 0 0 1-.066.379.444.444 0 0 1-.182.22zm1.281-1.67c-.077-.077-.187-.074-.327.006a.788.788 0 0 0-.327.37c-.074.16-.11.342-.11.54.003.195.039.335.113.412.074.077.184.074.327-.008a.818.818 0 0 0 .327-.371c.072-.16.11-.341.107-.54 0-.197-.035-.334-.11-.409zm-.324 1.116c-.08.047-.14.044-.184-.01-.044-.053-.069-.155-.069-.298a.93.93 0 0 1 .069-.376.437.437 0 0 1 .181-.223c.08-.044.14-.041.182.011.046.055.068.154.068.297a.986.986 0 0 1-.066.38.43.43 0 0 1-.181.22zm2.496-1.358a.153.153 0 0 1-.025.088.169.169 0 0 1-.066.066l-.47.272c-.025.014-.044.017-.063.009a.071.071 0 0 1-.025-.058c0-.03.008-.058.025-.088a.163.163 0 0 1 .063-.066l.16-.09-.003-.817-.121.137c-.02.02-.033.033-.047.039-.025.016-.047.02-.066.008-.014-.008-.025-.027-.025-.058 0-.044.02-.088.055-.126l.207-.245a.172.172 0 0 1 .055-.046l.03-.02c.027-.013.05-.016.069-.005.019.01.027.03.027.06l.003.962.126-.071c.028-.017.047-.017.066-.008.017.01.025.03.025.057zm.929-1.55c-.077-.077-.184-.074-.327.008a.818.818 0 0 0-.327.371c-.072.16-.11.339-.107.536 0 .198.035.339.11.413.077.077.186.074.327-.006a.803.803 0 0 0 .327-.37c.074-.16.11-.344.11-.542 0-.198-.039-.333-.113-.41zm-.324 1.119c-.08.044-.138.041-.182-.011-.046-.052-.068-.154-.068-.3 0-.143.022-.27.066-.376a.444.444 0 0 1 .18-.22c.08-.047.141-.042.185.008.044.055.069.157.069.3a.972.972 0 0 1-.066.376.444.444 0 0 1-.184.223zm1.28-1.669c-.076-.08-.184-.077-.324.006a.808.808 0 0 0-.33.37c-.071.158-.11.339-.107.537 0 .198.039.338.11.412.077.077.187.074.33-.008a.792.792 0 0 0 .324-.368c.072-.16.11-.344.11-.542 0-.195-.038-.332-.112-.407zm-.321 1.114c-.082.046-.14.046-.187-.009-.044-.052-.066-.154-.066-.3a.99.99 0 0 1 .066-.376.435.435 0 0 1 .184-.22c.077-.047.138-.041.182.008.044.055.068.157.068.3a.971.971 0 0 1-.066.377.434.434 0 0 1-.181.22zm1.278-1.669c-.077-.074-.184-.074-.327.008a.804.804 0 0 0-.324.369c-.074.159-.11.34-.11.538s.038.338.113.413c.074.08.184.074.327-.009a.792.792 0 0 0 .324-.368c.074-.16.11-.343.11-.539 0-.198-.039-.338-.113-.412zm-.321 1.116c-.083.047-.143.047-.185-.008-.046-.052-.068-.154-.068-.3a.99.99 0 0 1 .066-.376.435.435 0 0 1 .184-.22c.077-.047.14-.044.181.008.044.058.069.157.069.3a.971.971 0 0 1-.066.376.42.42 0 0 1-.181.22z" class="colorfff svgShape"/><path fill="#f8f9fe" d="m26.421 23.9 3.209-1.851v1.215l-3.202 1.851zm4.024-2.33 3.209-1.845v1.215l-3.202 1.851z" class="colorf8f9fe svgShape"/><path fill="#c9cee2" d="m27.102 2.811-2.263-1.315-2.521 3.325-2.527-.411-2.521 3.326-2.527-.411-2.516 3.322-2.526-.411-2.517 3.323-2.526-.411.094 33.206 2.263 1.315 2.516-3.322 2.532.408 2.516-3.322 2.526.411 2.522-3.326 2.526.411 2.516-3.322 2.527.411z" class="colorc9cee2 svgShape"/><path fill="#e9e7fc" d="m24.581 6.136-2.263-1.315 2.521-3.325 2.263 1.315z" class="colore9e7fc svgShape"/><path fill="#dedffb" d="M22.054 5.725 19.791 4.41l2.527.411 2.263 1.315z" class="colordedffb svgShape"/><path fill="#e9e7fc" d="M19.533 9.051 17.27 7.736l2.521-3.326 2.263 1.315z" class="colore9e7fc svgShape"/><path fill="#dedffb" d="m17.006 8.64-2.263-1.315 2.527.411 2.263 1.315z" class="colordedffb svgShape"/><path fill="#e9e7fc" d="m14.49 11.962-2.263-1.315 2.516-3.322 2.263 1.315z" class="colore9e7fc svgShape"/><path fill="#dedffb" d="M11.963 11.551 9.7 10.236l2.527.411 2.263 1.315z" class="colordedffb svgShape"/><path fill="#e9e7fc" d="m9.447 14.874-2.263-1.315L9.7 10.236l2.263 1.315z" class="colore9e7fc svgShape"/><path fill="#c9cee2" d="m7.015 47.67-2.263-1.316-.094-33.206 2.263 1.315z" class="colorc9cee2 svgShape"/><path fill="#f3f1fc" d="m27.102 2.811.094 33.207-2.527-.411-2.516 3.322-2.526-.411-2.522 3.326-2.526-.411-2.516 3.322-2.532-.408-2.516 3.323-.094-33.207 2.526.411 2.516-3.323 2.527.411 2.516-3.322 2.527.411 2.521-3.326 2.527.411z" class="colorf3f1fc svgShape"/><path fill="#dedffb" d="m6.921 14.463-2.263-1.315 2.526.411 2.263 1.315zm19.313 1.573-10.722 6.19.003.884 10.719-6.189zm0 2.199-10.716 6.187.003.884 10.713-6.186zm0 2.193-10.709 6.184.002.889 10.707-6.181zm-12.469 9.399.002.884-5.844 3.374-.003-.883zm12.469-5.006-10.697 6.176.003.89 10.694-6.175zm0-2.193-10.703 6.18.002.883 10.701-6.178zm-12.463 9.389.002.89-5.844 3.374-.003-.89zm0-4.386.002.89-5.844 3.375-.003-.89zm0-2.192.002.889-5.844 3.375-.003-.89zm0-2.193.002.89-5.844 3.374-.003-.89z" class="colordedffb svgShape"/><path fill="#423d9b" d="M12.69 16.188c0-.207-.068-.339-.204-.388-.135-.05-.339.002-.604.156l-.674.389a.29.29 0 0 0-.107.115.294.294 0 0 0-.043.147l.006 2.037c0 .048.015.081.044.098.029.016.065.012.106-.012a.307.307 0 0 0 .109-.113.3.3 0 0 0 .044-.148l-.002-.748.579-.334c.127-.074.222-.094.284-.06s.103.092.12.172c.017.083.026.18.026.289v.1c0 .049.015.084.043.1.029.014.065.01.111-.017a.296.296 0 0 0 .107-.111c.028-.05.043-.1.043-.148v-.152a1.148 1.148 0 0 0-.08-.425c-.047-.114-.13-.164-.245-.15.102-.111.182-.232.24-.361.065-.151.098-.298.098-.436zm-1.326 1.2-.002-.798.489-.283c.198-.114.338-.162.419-.14.078.021.117.093.118.22a.622.622 0 0 1-.137.379 1.233 1.233 0 0 1-.383.33l-.504.292zm5.243-2.11a.293.293 0 0 1-.075.19c-.104.124-.208.24-.312.335a2.132 2.132 0 0 1-.357.26c-.197.113-.373.165-.53.158a.46.46 0 0 1-.37-.213c-.09-.13-.136-.32-.136-.567a1.994 1.994 0 0 1 .132-.721 2.24 2.24 0 0 1 .368-.64c.156-.188.332-.34.53-.452.13-.077.252-.129.356-.152.104-.024.21-.033.315-.027.05.005.072.039.074.107a.259.259 0 0 1-.038.124.249.249 0 0 1-.098.102.129.129 0 0 1-.063.02.88.88 0 0 0-.244.027c-.08.018-.172.059-.276.118a1.5 1.5 0 0 0-.413.357 1.507 1.507 0 0 0-.34.963c0 .17.03.305.089.405a.32.32 0 0 0 .255.165c.113.009.253-.032.414-.125.104-.059.196-.126.276-.199.079-.07.16-.158.244-.255a.211.211 0 0 1 .06-.05c.041-.022.073-.03.1-.013.025.013.039.043.039.083zm-2.069 1.237c.027.013.04.045.04.092a.262.262 0 0 1-.04.14.307.307 0 0 1-.102.107l-1.16.669c-.045.025-.078.03-.108.011-.03-.015-.043-.05-.043-.097l-.007-2.019c0-.05.016-.1.043-.147a.275.275 0 0 1 .109-.117l1.16-.67c.04-.022.072-.024.101-.01.027.017.043.05.043.094a.283.283 0 0 1-.04.14.286.286 0 0 1-.104.105l-1.006.583v.69l.904-.523c.038-.023.074-.025.104-.011.027.018.04.047.04.095a.265.265 0 0 1-.042.14.276.276 0 0 1-.1.104l-.904.522.002.694 1.006-.583c.04-.023.075-.025.104-.01zm3.839-2.218c.027.016.04.048.04.095a.307.307 0 0 1-.142.246l-1.162.67c-.04.024-.077.027-.106.01s-.043-.049-.043-.096l-.007-2.021c0-.048.014-.098.043-.147a.31.31 0 0 1 .106-.116l1.162-.669c.039-.022.075-.027.102-.011.027.018.043.05.043.093a.288.288 0 0 1-.043.142.281.281 0 0 1-.102.104l-1.008.581.002.692.905-.522c.04-.023.072-.028.101-.012.027.018.043.048.043.093a.27.27 0 0 1-.04.14.277.277 0 0 1-.104.106l-.902.523v.694l1.008-.584c.04-.022.074-.027.104-.01zm.737-.3a.3.3 0 0 1-.045.149.326.326 0 0 1-.109.113c-.043.022-.08.027-.106.01-.03-.015-.045-.049-.045-.096l-.005-2.053c0-.05.014-.1.043-.15a.278.278 0 0 1 .106-.114c.04-.023.08-.028.109-.01.03.016.045.048.045.098l.007 2.052zm1.783-3.137c-.118-.005-.273.048-.459.156l-.66.38a.295.295 0 0 0-.106.115.294.294 0 0 0-.043.148l.006 2.037c0 .048.014.08.043.097.03.017.065.013.107-.012a.307.307 0 0 0 .108-.112c.03-.05.045-.1.045-.148l-.002-.689.506-.292a1.73 1.73 0 0 0 .46-.375c.117-.14.204-.285.255-.432a1.21 1.21 0 0 0 .077-.414.615.615 0 0 0-.079-.325c-.052-.085-.14-.13-.258-.134zm-.962 1.639-.003-.857.481-.278c.19-.11.326-.147.402-.109.078.038.114.117.115.24s-.037.247-.114.372c-.074.125-.21.244-.4.354l-.481.278zm3.124-2.83a.26.26 0 0 1-.043.14.288.288 0 0 1-.102.107l-.568.325.007 1.886c0 .047-.016.1-.047.149a.265.265 0 0 1-.106.11c-.043.026-.077.03-.107.012-.03-.016-.045-.047-.045-.095l-.004-1.885-.572.33c-.041.022-.073.027-.1.011-.027-.016-.04-.045-.04-.093 0-.045.013-.092.038-.14a.272.272 0 0 1 .102-.106l1.442-.834c.04-.023.075-.027.102-.011.027.018.043.05.043.094z" class="color423d9b svgShape"/><path fill="#dedffb" d="m10.195 21.467.013.841-.725.414-.013-.828zm7.222-4.168.013.829-.738.427v-.841zm6.497-3.753.725-.414v.828l-.725.427zm-10.108 5.837.725-.414v.828l-.725.427zm1.45-.828.724-.414v.828l-.724.414zm10.832-6.251v.828l-.724.414-.013-.828zM10.92 21.053l.725-.414v.828l-.725.414zm-2.886 1.669.725-.414v.828l-.725.415zm4.323-2.498.737-.427v.842l-.724.414zm5.785-3.339.725-.414v.828l-.725.415zm2.886-1.669.725-.414v.828l-.725.427zm-.725.414.013.841-.738.414v-.828zm2.162-1.243.737-.427v.842l-.724.414z" class="colordedffb svgShape"/><path fill="#fff" d="M26.361 27.2 7.926 37.843l.005 5.786 18.43-10.64z" class="colorfff svgShape"/><path fill="#4c5c75" d="m24.812 28.713.013 4.54-.91.525-.013-4.54zm-1.162.671.013 4.54-1.045.603-.013-4.539zm2.073-1.196.013 4.539-.523.302-.013-4.54zm-7.556 4.362.013 4.54-.458.264-.013-4.54zm-.857.495.013 4.539-.663.383-.013-4.539zm-7.238 4.179.013 4.539-.452.261-.013-4.539zm-.851.491.013 4.54-.67.386-.013-4.54zm13.132-7.582.013 4.54-3.757 2.169-.013-4.54zM16.3 33.628l.013 4.539-2.037 1.176-.013-4.539zm-3.645 2.104.013 4.54-1.245.719-.013-4.54zm-1.544.892.013 4.539-.622.36-.013-4.54zM13.923 35l.013 4.54-.84.485-.013-4.54z" class="color4c5c75 svgShape"/><path fill="#50b069" d="M45.759 34.175v-.001h-.001v-.006l-1.14-.657 1.129-.656.012-1.747-.001-.001v-.005l-9.526-5.495-18.089 10.508-.001.005-.004.003-.012 1.588-.001.158v.001l1.141.659-1.123.652-.001.006-.004.002-.012 1.589-.001.157v.001l1.141.659-1.123.653-.001.005-.004.003-.012 1.588-.001.158v.001l9.526 5.5v.001l7.722-4.487v.001l.302-.176 1.635-.951.534-.31.228-.132v-.001l7.675-4.46.012-1.747-.001-.001v-.005l-1.14-.658 1.129-.656z" class="color50b069 svgShape"/><path fill="#5ec363" d="m45.758 37.235-.018 1.754-18.089 10.507-9.526-5.494.018-1.754L36.232 31.74z" class="color5ec363 svgShape"/><path fill="#50b069" d="m45.759 37.241-.012 1.747-18.096 10.516.014-1.747 7.678-4.464.303-.173 2.11-1.228.305-.176v-.003z" class="color50b069 svgShape"/><path fill="#5ec363" d="m27.665 47.756-.013 1.747-9.527-5.5.013-1.747z" class="color5ec363 svgShape"/><path fill="#72d561" d="M45.759 37.241 27.665 47.756l-9.527-5.5 18.094-10.515z" class="color72d561 svgShape"/><path fill="#78e75a" d="M40.308 37.692 38.04 39.01l-.344-.199 2.268-1.318z" class="color78e75a svgShape"/><ellipse cx="36.757" cy="36.955" fill="#72d561" class="color72d561 svgShape" rx=".843" ry="1.455" transform="rotate(-89.838 36.757 36.955)"/><path fill="#78e75a" d="M37.997 36.234c.689.398.693 1.045.008 1.442-.684.398-1.8.398-2.49 0-.688-.397-.692-1.044-.007-1.442.684-.397 1.8-.397 2.49 0zm-2.266 1.317c.569.329 1.49.33 2.058 0 .565-.328.562-.863-.007-1.192-.57-.33-1.493-.328-2.058 0-.567.33-.564.863.007 1.192m3.636.034-1.514.88-.161-.093 1.514-.88z" class="color78e75a svgShape"/><path fill="#fff" d="M41.397 36.667c-.546.317-.541.83.006 1.147L28.641 45.23c-.547-.316-1.435-.316-1.981.001L22.5 42.83c.546-.318.545-.831-.004-1.148l12.762-7.416c.549.317 1.435.316 1.98 0l4.159 2.401zM30.31 40.702c1.148.663 2.82.775 3.725.25.904-.526.704-1.494-.444-2.157-1.15-.664-2.822-.777-3.727-.251-.904.526-.705 1.494.446 2.158m-3.886 2.258c.69.397 1.805.397 2.49 0 1.637-.952-.855-2.4-2.5-1.443-.684.397-.678 1.045.01 1.443m11.573-6.726c-.689-.397-1.805-.397-2.49 0-.684.398-.68 1.045.009 1.442.689.398 1.805.398 2.49 0 .684-.397.68-1.044-.009-1.442M24.456 41.7l3.073-1.785-.344-.199-3.073 1.786.344.198m11.016-6.8-3.073 1.787.343.198 3.073-1.786-.343-.198m2.568 4.11 2.268-1.318-.344-.199-2.268 1.318.344.199M25.214 41.7l1.514-.88-.161-.092-1.514.88.16.093m13.993-4.209-1.514.88.16.093 1.515-.88-.16-.093m-3.549-2.048-1.514.88.161.093 1.514-.88-.16-.093" class="colorfff svgShape"/><path fill="#fff" d="m35.819 35.537-1.514.88-.161-.093 1.514-.88z" class="colorfff svgShape"/><path fill="#72d561" d="M33.501 38.847c1.086.627 1.275 1.541.42 2.039-.858.498-2.435.39-3.521-.237-1.088-.628-1.28-1.54-.421-2.04.855-.496 2.434-.39 3.522.238z" class="color72d561 svgShape"/><path fill="#78e75a" d="M33.826 38.658c1.313.758 1.542 1.865.508 2.466-1.035.601-2.946.473-4.26-.286-1.315-.759-1.543-1.866-.509-2.467 1.035-.6 2.946-.472 4.261.287zM30.4 40.65c1.086.628 2.663.735 3.52.237.856-.498.667-1.412-.419-2.039-1.088-.628-2.667-.734-3.522-.237-.858.498-.667 1.411.42 2.04" class="color78e75a svgShape"/><path fill="#fff" d="m35.815 35.098-3.073 1.786-.343-.198 3.073-1.786z" class="colorfff svgShape"/><path fill="#78e75a" d="m26.728 40.82-1.514.881-.161-.093 1.514-.881zm.801-.906-3.073 1.785-.344-.198 3.073-1.786zm1.385 3.046c-.685.397-1.8.397-2.49 0-.688-.398-.694-1.046-.01-1.443 1.645-.956 4.137.491 2.5 1.443zm-2.275-.125c.57.328 1.493.328 2.058 0 .567-.33.562-.864-.006-1.192-.571-.33-1.491-.33-2.058 0-.566.328-.564.862.006 1.192" class="color78e75a svgShape"/><ellipse cx="27.665" cy="42.239" fill="#72d561" class="color72d561 svgShape" rx=".843" ry="1.455" transform="rotate(-89.838 27.665 42.239)"/><path fill="#78e75a" d="m36.237 32.43 8.332 4.81-16.909 9.827-8.332-4.81 16.91-9.827zm-7.596 12.8 12.762-7.416c-.547-.317-.552-.83-.006-1.147l-4.16-2.402c-.544.317-1.43.318-1.98 0l-12.761 7.417c.549.317.55.83.004 1.148l4.16 2.401c.546-.317 1.434-.317 1.981-.001" class="color78e75a svgShape"/><path fill="#f45170" d="m38.062 41.714-.302.175-9.527-5.5.302-.175zm-2.398 1.393-.302.176-9.527-5.5.302-.176z" class="colorf45170 svgShape"/><path fill="#fff" d="m37.76 41.889-2.096 1.218-9.527-5.5 2.096-1.218z" class="colorfff svgShape"/><path fill="#4b9534" d="M45.398 38.323a325.46 325.46 0 0 1-3.748 2.253l-3.771 2.214c-2.257 1.29-4.004 2.33-7.603 4.321 3.5-2.135 5.26-3.132 7.518-4.467l3.79-2.18a325.567 325.567 0 0 1 3.814-2.141z" class="color4b9534 svgShape"/><path fill="#50b069" d="M18.768 43.749c1.967.99 5.311 2.945 6.991 4.063-1.787-.9-5.14-2.834-6.991-4.063z" class="color50b069 svgShape"/><path fill="#df3260" d="m38.072 43.449-.305.176-.011-1.733v-.002l.305-.177v.003zm-2.699 1.569-.012-1.726v-.008l.303-.177v.012l.011 1.723" class="colordf3260 svgShape"/><path fill="#e9e7fc" d="m37.767 43.625-2.092 1.217-.011-1.723v-.012l2.092-1.217v.002z" class="colore9e7fc svgShape"/><path fill="#36712d" d="M36.198 34.057c0 .01-.006.017-.018.025l-.253.147a.097.097 0 0 1-.085 0c-.011-.007-.018-.015-.02-.025 0-.01.007-.017.019-.025l.09-.052-.398-.229-.036.063a.069.069 0 0 1-.016.016c-.013.007-.027.01-.044.01s-.031-.003-.044-.01c-.018-.011-.023-.024-.014-.04l.052-.097a.053.053 0 0 1 .02-.02l.017-.01a.096.096 0 0 1 .048-.011c.018 0 .034.004.047.011l.458.264.073-.042a.08.08 0 0 1 .042-.01c.018 0 .033.004.044.01.01.006.018.015.018.025zm.964-.633c-.015-.054-.07-.108-.162-.162a.682.682 0 0 0-.279-.093.414.414 0 0 0-.254.052c-.075.043-.105.092-.088.147.015.054.07.108.163.161a.684.684 0 0 0 .278.094.422.422 0 0 0 .254-.052c.074-.043.103-.092.088-.147zm-.332.125a.545.545 0 0 1-.199-.072c-.069-.04-.11-.078-.124-.114-.014-.036.001-.067.046-.092a.242.242 0 0 1 .16-.028.545.545 0 0 1 .197.072c.07.04.11.079.125.115.014.036-.002.066-.046.092a.243.243 0 0 1-.159.027zm-.182.174c-.015-.055-.07-.109-.16-.162a.694.694 0 0 0-.281-.093.414.414 0 0 0-.254.051c-.073.044-.104.092-.088.148.015.054.07.108.162.16a.692.692 0 0 0 .28.095.428.428 0 0 0 .254-.052c.074-.043.103-.093.087-.147zm-.33.125a.543.543 0 0 1-.2-.073c-.07-.039-.11-.078-.124-.114-.015-.036 0-.066.045-.092a.246.246 0 0 1 .16-.027.54.54 0 0 1 .197.071c.069.04.111.079.126.115.013.036-.001.066-.046.092s-.098.036-.159.028zM27.36 46.107c0 .01-.007.018-.019.025l-.265.155a.098.098 0 0 1-.088-.001c-.012-.007-.02-.016-.02-.026 0-.01.006-.018.019-.025l.093-.055-.415-.24-.038.066a.072.072 0 0 1-.017.017.098.098 0 0 1-.091 0c-.02-.012-.024-.025-.015-.04l.054-.103a.055.055 0 0 1 .021-.02l.018-.011a.1.1 0 0 1 .05-.012.1.1 0 0 1 .05.012l.478.276.076-.045a.084.084 0 0 1 .045-.01c.018 0 .034.004.045.01.011.007.019.017.019.027zm1.008-.662c-.015-.057-.073-.113-.17-.169a.713.713 0 0 0-.29-.097.432.432 0 0 0-.266.053c-.079.046-.11.097-.093.155.016.055.074.112.17.168a.715.715 0 0 0 .291.098.44.44 0 0 0 .266-.055c.078-.044.108-.096.092-.153zm-.347.13c-.065-.008-.136-.033-.208-.075s-.115-.081-.13-.12c-.015-.037.001-.07.049-.096a.253.253 0 0 1 .166-.028.563.563 0 0 1 .207.075c.072.041.115.082.13.12.015.038-.001.069-.048.096a.254.254 0 0 1-.166.029zm-.19.182c-.016-.057-.073-.113-.168-.17a.726.726 0 0 0-.294-.096.432.432 0 0 0-.265.053c-.077.046-.109.097-.092.155.016.056.074.113.17.168a.724.724 0 0 0 .291.098.447.447 0 0 0 .266-.054c.078-.045.108-.097.092-.154zm-.346.13a.568.568 0 0 1-.21-.075c-.07-.04-.114-.081-.129-.12-.015-.037.001-.068.048-.096a.258.258 0 0 1 .167-.028.564.564 0 0 1 .206.075c.072.041.116.082.131.12.015.038 0 .069-.048.096a.253.253 0 0 1-.165.029z" class="color36712d svgShape"/><path fill="#5ec363" d="m45.758 34.168-.018 1.754L27.651 46.43l-9.526-5.495.018-1.754 18.089-10.507z" class="color5ec363 svgShape"/><path fill="#50b069" d="m45.759 34.174-.012 1.747-18.096 10.517.014-1.747 7.678-4.464.303-.174 2.11-1.227.305-.177v-.002z" class="color50b069 svgShape"/><path fill="#5ec363" d="m27.665 44.69-.013 1.747-9.527-5.501.013-1.747z" class="color5ec363 svgShape"/><path fill="#72d561" d="M45.759 34.174 27.665 44.69l-9.527-5.501 18.094-10.515z" class="color72d561 svgShape"/><path fill="#78e75a" d="m40.308 34.625-2.268 1.318-.344-.198 2.268-1.318z" class="color78e75a svgShape"/><ellipse cx="36.757" cy="33.889" fill="#72d561" class="color72d561 svgShape" rx=".843" ry="1.455" transform="rotate(-89.838 36.757 33.889)"/><path fill="#78e75a" d="M37.997 33.168c.689.398.693 1.044.008 1.442-.684.397-1.8.397-2.49 0-.688-.398-.692-1.044-.007-1.442.684-.398 1.8-.398 2.49 0zm-2.266 1.317c.569.328 1.49.33 2.058 0 .565-.329.562-.864-.007-1.192-.57-.33-1.493-.329-2.058 0-.567.33-.564.862.007 1.192m3.636.034-1.514.88-.161-.093 1.514-.88z" class="color78e75a svgShape"/><path fill="#fff" d="M41.397 33.6c-.546.318-.541.831.006 1.147l-12.762 7.417c-.547-.316-1.435-.316-1.981 0l-4.16-2.4c.546-.318.545-.831-.004-1.148l12.762-7.417c.549.317 1.435.316 1.98 0l4.159 2.402zM30.31 37.636c1.148.663 2.82.776 3.725.25.904-.526.704-1.493-.444-2.157-1.15-.664-2.822-.776-3.727-.25-.904.525-.705 1.493.446 2.157m-3.886 2.258c.69.398 1.805.398 2.49 0 .684-.397.68-1.044-.008-1.442-.69-.397-1.807-.398-2.492 0-.684.397-.678 1.045.01 1.442m11.573-6.725c-.689-.398-1.805-.398-2.49 0-.684.398-.68 1.044.009 1.442.689.397 1.805.397 2.49 0 .684-.398.68-1.044-.009-1.442m-13.541 5.465 3.073-1.786-.344-.198-3.073 1.786.344.198m11.016-6.8-3.073 1.786.343.199 3.073-1.786-.343-.199m2.568 4.11 2.268-1.318-.344-.198-2.268 1.318.344.198m-12.826 2.691 1.514-.88-.161-.093-1.514.88.16.093m13.993-4.208-1.514.88.16.093 1.515-.88-.16-.093m-3.549-2.048-1.514.88.161.093 1.514-.88-.16-.093" class="colorfff svgShape"/><path fill="#fff" d="m35.819 32.471-1.514.88-.161-.093 1.514-.88z" class="colorfff svgShape"/><path fill="#72d561" d="M33.501 35.78c1.086.628 1.275 1.542.42 2.04-.858.498-2.435.39-3.521-.237-1.088-.628-1.28-1.541-.421-2.04.855-.497 2.434-.39 3.522.238z" class="color72d561 svgShape"/><path fill="#78e75a" d="M33.826 35.592c1.313.758 1.542 1.865.508 2.466-1.035.6-2.946.472-4.26-.286-1.315-.76-1.543-1.866-.509-2.467 1.035-.601 2.946-.473 4.261.287zM30.4 37.583c1.086.627 2.663.735 3.52.236.856-.497.667-1.411-.419-2.038-1.088-.628-2.667-.735-3.522-.238-.858.499-.667 1.412.42 2.04" class="color78e75a svgShape"/><path fill="#fff" d="m35.815 32.032-3.073 1.786-.343-.199 3.073-1.786z" class="colorfff svgShape"/><path fill="#78e75a" d="m26.728 37.754-1.514.88-.161-.093 1.514-.88zm.801-.907-3.073 1.786-.344-.198 3.073-1.786zm1.377 1.604c.688.398.692 1.045.008 1.442-.685.398-1.8.398-2.49 0-.688-.397-.694-1.045-.01-1.443.685-.397 1.803-.396 2.492.001zm-2.267 1.317c.57.329 1.493.329 2.058 0 .567-.33.562-.863-.006-1.192-.571-.33-1.491-.33-2.058 0-.566.329-.564.863.006 1.192" class="color78e75a svgShape"/><ellipse cx="27.665" cy="39.172" fill="#72d561" class="color72d561 svgShape" rx=".843" ry="1.455" transform="rotate(-89.838 27.665 39.172)"/><path fill="#78e75a" d="m36.237 29.364 8.332 4.81L27.66 44l-8.332-4.81 16.91-9.826zm-7.596 12.8 12.762-7.417c-.547-.316-.552-.83-.006-1.146l-4.16-2.402c-.544.316-1.43.317-1.98 0l-12.761 7.417c.549.317.55.83.004 1.147l4.16 2.402c.546-.317 1.434-.317 1.981-.001" class="color78e75a svgShape"/><path fill="#f45170" d="m38.062 38.647-.302.176-9.527-5.5.302-.176zm-2.398 1.394-.302.175-9.527-5.5.302-.175z" class="colorf45170 svgShape"/><path fill="#fff" d="m37.76 38.823-2.096 1.218-9.527-5.5 2.096-1.218z" class="colorfff svgShape"/><path fill="#4b9534" d="M45.398 35.257c-1.245.759-2.494 1.51-3.748 2.252l-3.771 2.214-3.79 2.18a321.896 321.896 0 0 1-3.813 2.142c1.244-.76 2.493-1.511 3.748-2.253l3.77-2.214 3.79-2.18a325.57 325.57 0 0 1 3.814-2.141z" class="color4b9534 svgShape"/><path fill="#50b069" d="M18.768 40.682c.603.304 1.195.626 1.785.951.812.446 2.451 1.391 3.496 2.031.575.353 1.148.707 1.71 1.081a54.704 54.704 0 0 1-1.786-.95 107.634 107.634 0 0 1-3.495-2.032 55.144 55.144 0 0 1-1.71-1.08z" class="color50b069 svgShape"/><path fill="#df3260" d="m38.072 40.382-.305.177-.011-1.733v-.003l.305-.176v.002zm-2.699 1.57-.012-1.726v-.009l.303-.176v.011l.011 1.723" class="colordf3260 svgShape"/><path fill="#e9e7fc" d="m37.767 40.559-2.092 1.216-.011-1.723v-.011l2.092-1.218v.003z" class="colore9e7fc svgShape"/><path fill="#36712d" d="M36.198 30.99c0 .01-.006.018-.018.025l-.253.148c-.012.006-.027.01-.043.01s-.032-.005-.042-.011c-.011-.007-.018-.015-.02-.025 0-.01.007-.017.019-.024l.09-.052-.398-.23-.036.063a.069.069 0 0 1-.016.016c-.013.008-.027.011-.044.011s-.031-.003-.044-.01c-.018-.011-.023-.024-.014-.04l.052-.097a.053.053 0 0 1 .02-.02l.017-.01a.096.096 0 0 1 .048-.012.1.1 0 0 1 .047.012l.458.264.073-.042a.08.08 0 0 1 .042-.01c.018 0 .033.003.044.01s.018.015.018.025zm.964-.632c-.015-.054-.07-.109-.162-.162a.682.682 0 0 0-.279-.093.414.414 0 0 0-.254.051c-.075.044-.105.093-.088.148.015.053.07.107.163.16a.684.684 0 0 0 .278.095.422.422 0 0 0 .254-.053c.074-.042.103-.092.088-.146zm-.332.125a.545.545 0 0 1-.199-.073c-.069-.04-.11-.077-.124-.114-.014-.036.001-.067.046-.092a.242.242 0 0 1 .16-.027.542.542 0 0 1 .197.071c.07.04.11.08.125.115.014.036-.002.066-.046.093a.243.243 0 0 1-.159.027zm-.182.173c-.015-.054-.07-.108-.16-.162a.694.694 0 0 0-.281-.093.414.414 0 0 0-.254.052c-.073.043-.104.092-.088.147.015.054.07.109.162.161a.692.692 0 0 0 .28.094.428.428 0 0 0 .254-.051c.074-.044.103-.093.087-.148zm-.33.125a.543.543 0 0 1-.2-.072c-.07-.04-.11-.078-.124-.114-.015-.036 0-.066.045-.092a.246.246 0 0 1 .16-.028.54.54 0 0 1 .197.072c.069.04.111.079.126.115.013.036-.001.066-.046.092a.242.242 0 0 1-.159.027zM27.36 43.04c0 .01-.007.018-.019.026l-.265.154c-.012.007-.027.01-.044.01s-.033-.004-.044-.01c-.012-.007-.02-.016-.02-.026 0-.01.006-.018.019-.026l.093-.055-.415-.239-.038.065a.072.072 0 0 1-.017.017c-.013.008-.028.012-.045.012s-.033-.004-.046-.012c-.02-.011-.024-.024-.015-.04l.054-.102a.055.055 0 0 1 .021-.021l.018-.01a.1.1 0 0 1 .05-.013.1.1 0 0 1 .05.012l.478.276.076-.044a.084.084 0 0 1 .045-.01c.018 0 .034.003.045.01s.019.016.019.027zm1.008-.661c-.015-.057-.073-.114-.17-.17a.713.713 0 0 0-.29-.097.432.432 0 0 0-.266.054c-.079.045-.11.096-.093.154.016.056.074.113.17.168a.715.715 0 0 0 .291.099.44.44 0 0 0 .266-.055c.078-.045.108-.097.092-.153zm-.347.13c-.065-.008-.136-.034-.208-.075s-.115-.082-.13-.12c-.015-.037.001-.07.049-.096a.253.253 0 0 1 .166-.028.563.563 0 0 1 .207.074c.072.042.115.083.13.12.015.038-.001.07-.048.097a.254.254 0 0 1-.166.028zm-.19.182c-.016-.057-.073-.114-.168-.17a.726.726 0 0 0-.294-.097.432.432 0 0 0-.265.054c-.077.045-.109.096-.092.154.016.057.074.114.17.168a.724.724 0 0 0 .291.099.447.447 0 0 0 .266-.054c.078-.046.108-.098.092-.154zm-.346.13a.568.568 0 0 1-.21-.075c-.07-.041-.114-.082-.129-.12-.015-.037.001-.069.048-.096a.258.258 0 0 1 .167-.028.565.565 0 0 1 .206.074c.072.042.116.083.131.12.015.038 0 .07-.048.097s-.102.037-.165.028z" class="color36712d svgShape"/><path fill="#5ec363" d="m45.758 31.102-.018 1.754-18.089 10.508-9.526-5.495.018-1.754 18.089-10.508z" class="color5ec363 svgShape"/><path fill="#50b069" d="m45.759 31.108-.012 1.747-18.096 10.516.014-1.747 7.678-4.463.303-.174 2.11-1.227.305-.177v-.003z" class="color50b069 svgShape"/><path fill="#5ec363" d="m27.665 41.623-.013 1.747-9.527-5.5.013-1.747z" class="color5ec363 svgShape"/><path fill="#72d561" d="M45.759 31.108 27.665 41.623l-9.527-5.5 18.094-10.515z" class="color72d561 svgShape"/><path fill="#78e75a" d="m40.308 31.559-2.268 1.318-.344-.198 2.268-1.318z" class="color78e75a svgShape"/><ellipse cx="36.757" cy="30.822" fill="#72d561" class="color72d561 svgShape" rx=".843" ry="1.455" transform="rotate(-89.838 36.757 30.822)"/><path fill="#78e75a" d="M37.997 30.101c.689.398.693 1.045.008 1.442-.684.398-1.8.398-2.49 0-.688-.397-.692-1.044-.007-1.442.684-.397 1.8-.397 2.49 0zm-2.266 1.317c.569.329 1.49.33 2.058 0 .565-.328.562-.863-.007-1.192-.57-.33-1.493-.328-2.058 0-.567.33-.564.863.007 1.192m3.636.034-1.514.881-.161-.093 1.514-.88z" class="color78e75a svgShape"/><path fill="#fff" d="M41.397 30.534c-.546.317-.541.83.006 1.147l-12.762 7.416c-.547-.316-1.435-.316-1.981.001l-4.16-2.401c.546-.317.545-.83-.004-1.148l12.762-7.416c.549.317 1.435.316 1.98 0l4.159 2.401zM30.31 34.57c1.148.663 2.82.776 3.725.25.904-.526.704-1.494-.444-2.157-1.15-.664-2.822-.777-3.727-.25-.904.525-.705 1.493.446 2.157m-3.886 2.258c.69.397 1.805.397 2.49 0 .684-.398.68-1.044-.008-1.442-.69-.398-1.807-.399-2.492-.001-.684.398-.678 1.045.01 1.443M37.997 30.1c-.689-.397-1.805-.397-2.49 0-.684.398-.68 1.045.009 1.442.689.398 1.805.398 2.49 0 .684-.397.68-1.044-.009-1.442m-13.541 5.466 3.073-1.786-.344-.199-3.073 1.786.344.199m11.016-6.8-3.073 1.786.343.198 3.073-1.786-.343-.198m2.568 4.11 2.268-1.318-.344-.198-2.268 1.318.344.198m-12.826 2.69 1.514-.88-.161-.092-1.514.88.16.093m13.993-4.208-1.514.88.16.093 1.515-.88-.16-.093m-3.549-2.049-1.514.88.161.093 1.514-.88-.16-.093" class="colorfff svgShape"/><path fill="#fff" d="m35.819 29.404-1.514.88-.161-.093 1.514-.88z" class="colorfff svgShape"/><path fill="#72d561" d="M33.501 32.714c1.086.628 1.275 1.542.42 2.039-.858.498-2.435.39-3.521-.236-1.088-.629-1.28-1.542-.421-2.04.855-.497 2.434-.39 3.522.237z" class="color72d561 svgShape"/><path fill="#78e75a" d="M33.826 32.525c1.313.759 1.542 1.865.508 2.466-1.035.601-2.946.473-4.26-.285-1.315-.76-1.543-1.866-.509-2.468 1.035-.6 2.946-.472 4.261.287zM30.4 34.517c1.086.627 2.663.734 3.52.236.856-.497.667-1.411-.419-2.039-1.088-.628-2.667-.734-3.522-.237-.858.498-.667 1.411.42 2.04" class="color78e75a svgShape"/><path fill="#fff" d="m35.815 28.965-3.073 1.786-.343-.198 3.073-1.786z" class="colorfff svgShape"/><path fill="#78e75a" d="m26.728 34.688-1.514.88-.161-.093 1.514-.88zm.801-.907-3.073 1.786-.344-.199 3.073-1.786zm1.377 1.604c.688.398.692 1.044.008 1.442-.685.397-1.8.397-2.49 0-.688-.398-.694-1.045-.01-1.443.685-.398 1.803-.397 2.492 0zm-2.267 1.317c.57.328 1.493.328 2.058 0 .567-.33.562-.864-.006-1.192-.571-.33-1.491-.33-2.058 0-.566.328-.564.862.006 1.192" class="color78e75a svgShape"/><ellipse cx="27.665" cy="36.106" fill="#72d561" class="color72d561 svgShape" rx=".843" ry="1.455" transform="rotate(-89.838 27.665 36.106)"/><path fill="#78e75a" d="m36.237 26.297 8.332 4.81-16.909 9.827-8.332-4.81 16.91-9.827zm-7.596 12.8 12.762-7.416c-.547-.316-.552-.83-.006-1.147l-4.16-2.401c-.544.316-1.43.317-1.98 0l-12.761 7.416c.549.317.55.83.004 1.148l4.16 2.401c.546-.317 1.434-.317 1.981 0" class="color78e75a svgShape"/><path fill="#f45170" d="m38.062 35.581-.302.176-9.527-5.501.302-.175zm-2.398 1.393-.302.176-9.527-5.5.302-.176z" class="colorf45170 svgShape"/><path fill="#fff" d="m37.76 35.757-2.096 1.217-9.527-5.5 2.096-1.218z" class="colorfff svgShape"/><path fill="#4b9534" d="M45.398 32.19a325.46 325.46 0 0 1-3.748 2.253l-3.771 2.214-3.79 2.18a321.95 321.95 0 0 1-3.813 2.141 328.92 328.92 0 0 1 3.748-2.253l3.77-2.213 3.79-2.18a325.57 325.57 0 0 1 3.814-2.142z" class="color4b9534 svgShape"/><path fill="#50b069" d="M18.768 37.616c.603.304 1.195.626 1.785.95.591.325 1.173.665 1.76.997.579.345 1.162.683 1.736 1.035.575.352 1.148.707 1.71 1.08a54.711 54.711 0 0 1-1.786-.95c-.59-.325-1.172-.664-1.759-.996-.578-.346-1.161-.683-1.736-1.035a55.152 55.152 0 0 1-1.71-1.081z" class="color50b069 svgShape"/><path fill="#df3260" d="m38.072 37.316-.305.176-.011-1.732v-.003l.305-.177v.003zm-2.699 1.57-.012-1.727v-.008l.303-.177v.012l.011 1.723" class="colordf3260 svgShape"/><path fill="#e9e7fc" d="m37.767 37.492-2.092 1.217-.011-1.723v-.012l2.092-1.217v.003z" class="colore9e7fc svgShape"/><path fill="#36712d" d="M36.198 27.924c0 .01-.006.018-.018.025l-.253.147c-.012.007-.027.01-.043.01s-.032-.004-.042-.01c-.011-.007-.018-.015-.02-.025 0-.01.007-.017.019-.024l.09-.053-.398-.229-.036.063a.069.069 0 0 1-.016.016c-.013.007-.027.01-.044.01s-.031-.003-.044-.01c-.018-.01-.023-.024-.014-.039l.052-.098a.053.053 0 0 1 .02-.02l.017-.01a.096.096 0 0 1 .048-.011c.018 0 .034.004.047.012l.458.264.073-.043a.08.08 0 0 1 .042-.01c.018 0 .033.004.044.01s.018.016.018.025zm.964-.633c-.015-.054-.07-.108-.162-.161a.682.682 0 0 0-.279-.094.414.414 0 0 0-.254.052c-.075.043-.105.092-.088.147.015.054.07.108.163.161a.684.684 0 0 0 .278.094.422.422 0 0 0 .254-.052c.074-.043.103-.092.088-.147zm-.332.125a.545.545 0 0 1-.199-.072c-.069-.04-.11-.078-.124-.114-.014-.036.001-.067.046-.092a.242.242 0 0 1 .16-.027.524.524 0 0 1 .197.071c.07.04.11.079.125.115.014.036-.002.066-.046.092a.243.243 0 0 1-.159.027zm-.182.174c-.015-.054-.07-.109-.16-.162a.694.694 0 0 0-.281-.093.414.414 0 0 0-.254.051c-.073.044-.104.093-.088.148.015.054.07.108.162.16a.692.692 0 0 0 .28.095.428.428 0 0 0 .254-.052c.074-.043.103-.093.087-.147zm-.33.125a.543.543 0 0 1-.2-.073c-.07-.039-.11-.077-.124-.114-.015-.036 0-.066.045-.092a.246.246 0 0 1 .16-.027.54.54 0 0 1 .197.071c.069.04.111.08.126.115.013.036-.001.066-.046.093a.242.242 0 0 1-.159.027zM27.36 39.974c0 .01-.007.018-.019.026l-.265.154a.098.098 0 0 1-.088-.001c-.012-.007-.02-.015-.02-.026 0-.01.006-.018.019-.025l.093-.055-.415-.24-.038.066a.072.072 0 0 1-.017.017c-.013.008-.028.011-.045.011s-.033-.003-.046-.011c-.02-.011-.024-.025-.015-.04l.054-.103a.055.055 0 0 1 .021-.02l.018-.011a.1.1 0 0 1 .05-.012.1.1 0 0 1 .05.012l.478.276.076-.044a.084.084 0 0 1 .045-.01c.018 0 .034.003.045.01.011.006.019.016.019.026zm1.008-.662c-.015-.056-.073-.113-.17-.169a.713.713 0 0 0-.29-.097.432.432 0 0 0-.266.054c-.079.045-.11.096-.093.154.016.056.074.112.17.168a.715.715 0 0 0 .291.098.44.44 0 0 0 .266-.054c.078-.045.108-.097.092-.154zm-.347.13c-.065-.008-.136-.033-.208-.075s-.115-.081-.13-.119c-.015-.038.001-.07.049-.096a.253.253 0 0 1 .166-.029.563.563 0 0 1 .207.075c.072.042.115.082.13.12.015.038-.001.069-.048.096a.254.254 0 0 1-.166.029zm-.19.182c-.016-.056-.073-.113-.168-.169a.726.726 0 0 0-.294-.097.432.432 0 0 0-.265.054c-.077.045-.109.096-.092.154.016.056.074.113.17.168a.724.724 0 0 0 .291.098.447.447 0 0 0 .266-.054c.078-.045.108-.097.092-.154zm-.346.13a.568.568 0 0 1-.21-.075c-.07-.04-.114-.081-.129-.119-.015-.038.001-.069.048-.096a.258.258 0 0 1 .167-.029.564.564 0 0 1 .206.075c.072.042.116.082.131.12.015.038 0 .069-.048.096a.253.253 0 0 1-.165.029z" class="color36712d svgShape"/></svg></svg>