<svg xmlns="http://www.w3.org/2000/svg" width="256" height="256"><svg xmlns="http://www.w3.org/2000/svg" width="256" height="256" viewBox="0 0 265 265"><path fill="#ef9910" d="M252.352 86.892c-2.213-.873-4.235-1.697-6.658-1.449a7.038 7.038 0 0 0-2.145.578c-6.281-4.863-13.074-8.836-19.737-13.5-4.823-3.375-9.27-7.346-13.816-11.077-6.767-5.553-13.677-9.863-21.123-14.336-10.03-6.024-18.35-14.15-28.94-19.37-5.45-2.687-11.143-1.169-15.886 2.147-5.303 3.707-10.7 7.276-16.052 10.915A807.685 807.685 0 0 0 97.29 62.727c-10.226 7.675-20.97 14.64-30.674 22.984-9.195 7.907-19.387 14.04-29.149 21.178-9.998 7.31-19.03 15.464-27.027 24.93-3.127 3.7-.737 9.244 2.581 11.697 10.772 7.961 23.552 11.563 35.249 17.767 14.003 7.428 27.322 16.166 40.87 24.374 5.256 3.184 10.605 6.124 15.615 9.672 6.035 4.273 13.452 6.111 19.755 1.323 3.285-2.495 6.093-5.61 8.731-8.893a8.832 8.832 0 0 0 1.262-.406c.248-.102.479-.227.72-.338 2.14.097 4.272-.003 6.567-.986 5.388-2.31 8.414-6.822 11.798-11.285.212-.133.428-.254.639-.39 4.507-2.914 6.844-6.647 9.539-10.933 4.335-4.17 8.972-8.04 13.677-11.757 15.246-12.044 32.58-20.957 49.66-30.135 4.763-2.56 9.768-4.618 13.904-8.173 4.24-3.643 6.56-7.763 7.442-12.596l.972-.112c6.57-.758 10.26-10.864 2.932-13.756zM144.778 66.877a3.497 3.497 0 0 1-.746-.925c.255.304.496.618.746.925z" class="coloref9910 svgShape"/><path fill="#d88813" d="m80.033 134.296.008-.03.044-.28-.052.31zm.052-.31c.272-1.612.151-.932 0 0z" class="colord88813 svgShape"/><path fill="#d88813" d="M73.439 154.683c1 0 1.729-.526 2.153-1.22 2.346.25 5.326-1.095 7.052-1.829 1.194-.507 2.382-1.158 3.559-1.894a74.258 74.258 0 0 0 3.418 3.82c-.372.274-.744.544-1.12.839-2.285 1.787-5.593 4.583-8.372 5.392-1.719.5-.98 2.94.73 2.636 2.695-.479 5.532-2.533 7.933-3.783 1.29-.67 2.528-1.429 3.75-2.216 5.55 4.893 12.75 7.904 20.204 7.458 17.498-1.044 30.255-17.997 29.127-35.1-.157-2.374-.656-4.568-1.368-6.66 9.666-8.107 19.5-16.146 29.58-23.7.195.506.377 1.013.547 1.52 1.087 3.252 6.76 2.98 6.335-.816-.193-1.727-.33-3.463-.555-5.178 3.456-2.344 6.972-4.616 10.427-6.915 4.618-3.071 11.214-6.748 11.226-12.952.004-1.845-1.55-3.264-3.345-3.297-6.38-.117-11.078 7.585-15 11.597-1.61 1.648-3.355 3.17-5.153 4.64a33.048 33.048 0 0 0-2.264-4.273c2.402-2.395 4.434-5.099 5.658-8.366.388-1.035-.14-2.635-1.537-2.436-3.556.509-6.746 1.88-9.76 3.644-5.544-5.265-13.54-7.917-20.876-9.088-17.995-2.874-32.205 10.228-31.568 28.283.204 5.748 1.947 11.33 4.177 16.69l-.017.015c-8.562 7.885-18.298 14.412-27.285 21.807-1.442-1.107-3.025-2.011-4.863-2.558-2.44-.726-5.72.868-6.191 3.522-.094.587-.183 1.183-.185 1.311-.02 2.08.288 4.137.979 6.05-3.36 2.944-6.576 6.177-7.522 8.524-2.325.69-2.617 4.533.126 4.533zm36.047-7.04c3.573-2.483 6.852-5.658 10.144-8.242a348.958 348.958 0 0 0 4.459-3.563c-.66 2.345-1.728 4.644-3.199 6.858-2.45 3.688-7.081 5.331-11.404 4.946zm52.693-50.822c-7.893 6.863-15.754 13.757-23.659 20.607-1.106-2.24-2.366-4.418-3.61-6.636.49-.444.974-.89 1.468-1.33 4.466-3.96 9.557-7.093 14.462-10.466a441.4 441.4 0 0 0 13.883-9.982 35.132 35.132 0 0 1 2.554 3.686c-1.74 1.34-3.458 2.695-5.098 4.12zM131.34 83.006c5.444-6.323 15.348-4.97 22.35-2.405 1.163.426 2.28.97 3.354 1.595a492.71 492.71 0 0 1-11.469 7.927 227.626 227.626 0 0 0-15.243 11.134c-2.282-6.057-3.483-13.036 1.008-18.251zm-8.364 38.483c1.115 2.539 1.742 5.107 1.875 7.662a568.533 568.533 0 0 1-6.545 5.442c-4.576 3.739-9.184 8.268-14.417 11.183-2.184-1.404-4.011-3.27-5.756-5.227 8.228-6.416 16.823-12.384 24.843-19.06z" class="colord88813 svgShape"/><path fill="#d88813" d="M254.509 96.807c-.604-.834-1.31-1.4-2.061-1.773.47-1.453.172-3.187-1.43-4.653-1.822-1.668-4.078-2.383-6.37-3.16-3.287-1.114-6.184-3.62-9.102-5.452-.791-.497-1.584-.995-2.376-1.496-1.115-.99-2.215-1.966-3.264-2.935-5.537-5.115-11.319-9.086-17.628-13.211-.504-.242-1.014-.472-1.52-.708-8.591-7.963-16.549-16.688-25.864-23.755-4.728-3.587-10.147-6.34-15.435-8.991-5.046-2.532-11.219-4.711-16.956-3.798-12.568 2.002-24.346 11.684-34.249 19.07C95.458 62.946 73.386 80.669 51.9 99.306c-5.403 4.686-10.982 9.153-16.89 13.19-5.66 3.868-10.825 8.476-16.77 11.922-3.901 2.261-7.174 5.303-6.085 9.752-1.433 1.026-2.47 2.69-2.882 4.59-2.203 10.15 12.731 16.549 19.622 20.583 6.76 3.957 13.164 7.892 19.608 12.344 6.206 4.288 13.096 7.511 19.322 11.83 8.605 5.968 17.905 10.862 26.482 16.792 4.702 3.251 10.795 7.424 13.614 12.769-.726 1.774-1.307 3.647-2.113 5.368a91.068 91.068 0 0 0-13.575-7.214c-3.454-1.475-6.67-3.371-9.989-5.093-4.89-4.339-12.688-8.08-15.463-9.495-4.107-2.093-8.168-4.453-12.304-6.617a205.923 205.923 0 0 0-4.59-3.168c-9.29-6.205-19.19-11.608-28.15-18.265-4.836-3.593-16.248-5.512-17.385 3.048-.631 4.754 4.09 8.153 8.57 9.643.178.18.369.346.58.493 1.09.755 2.236 1.413 3.392 2.054.826.749 1.803 1.378 2.733 2.077 3.841 2.886 7.77 5.075 11.84 7.601a218.062 218.062 0 0 0 5.997 3.57c3.935 2.62 7.717 5.466 12.211 6.964 3.163 2.233 6.638 4.104 10.268 5.662 1.84 2.04 3.705 3.96 6.133 5.642 4.142 2.871 8.971 5.042 13.635 6.886 2.499.987 5.206 2.357 7.952 3.13.605.313 1.22.633 1.848.953 2.118 1.219 4.311 2.316 6.48 3.473 4.14 2.208 7.876 6.033 12.72 6.99.495.098.977.16 1.452.204 2.574 1.884 6.85 1.982 10.146 1.178 6.64-1.617 11.763-6.674 17.098-10.592 9.107-6.688 18.63-12.868 27.926-19.292 3.898-2.694 7.581-5.686 11.35-8.556 4.263-3.247 8.947-5.841 13.07-9.27 15.756-13.098 31.75-25.9 47.784-38.67 7.559-6.02 14.392-12.515 18.298-21.518.816-1.879 1.445-3.865 1.912-5.89.58-.238 1.09-.6 1.418-1.07 5.337-7.624.183-19.807-4.656-26.497zM177.516 46.19c-1.734-.931-3.442-1.908-5.08-3a25.327 25.327 0 0 1-1.499-1.09l.61.343a67.39 67.39 0 0 1 5.97 3.747zm-137.95 74.069c9.92-6.83 18.982-14.412 28.09-22.281 18.939-16.36 39.022-31.43 59.226-46.167 4.566-3.331 9.15-6.613 13.974-9.562 4.179-2.555 9.228-5.748 14.265-6.052 9.827 4.894 17.368 13.52 26.825 19.043 13.576 7.928 25.414 19.521 37.37 29.69 6.198 5.274 8.616 11.23 5.976 19.162a32.26 32.26 0 0 1-.87 2.29c-3.401 2.63-6.676 5.421-9.907 8.264l-.56.39c-5.448 3.836-10.513 8.246-15.516 12.738-5.798 4.328-11.709 8.49-17.552 12.91-10.442 7.9-19.55 17.367-29.36 26.023a251.91 251.91 0 0 1-5.106 2.992c-10.263 5.904-20.645 12.723-32.807 13.65-4.509.343-9.572-2.835-13.732-4.266a202.021 202.021 0 0 1-4.644-1.679c-2.77-1.56-5.404-3.18-7.829-4.648-5.426-3.283-10.587-6.768-16.221-9.705-6.655-3.469-12.255-8.49-18.473-12.631-5.255-3.5-11.042-6.322-16.745-9.001-2.985-1.402-6.035-2.906-8.882-4.56-2.42-1.408-3.07-3.552-3.197-5.88.608-.3 1.195-.603 1.712-.932 4.803-3.051 9.279-6.563 13.963-9.788zM11.812 172.54l-.351-.036c-.175-.283.362.033.35.036z" class="colord88813 svgShape"/><path fill="#eadab8" d="M105.243 205.954a45.002 45.002 0 0 0-1.74-1.557 11.776 11.776 0 0 0-3.416-2.58c-4.276-2.14-8.19-5.244-12.1-7.982-7.645-5.357-15.766-10.43-24.189-14.458-4.234-2.026-8.41-4.137-12.675-6.11-.657-.304-1.296-.615-1.925-.903-9.96-6.114-20.866-10.826-30.293-17.642-.832-.601-2.328-.028-2.088 1.152.67 3.293-.663 6.256-1.604 9.357-.286.943.39 2.076 1.24 2.462 3.563 1.617 7.179 3.022 10.787 4.437 2.403 2.19 5.737 3.721 8.585 5.2 3.33 2.283 6.432 4.908 9.733 7.227 4.08 2.866 8.516 5.242 12.74 7.886 3.796 2.376 7.12 5.31 10.719 7.944 3.697 2.705 8.015 4.63 12.093 6.676 6.331 3.176 12.044 7.854 18.796 10.096 4.544 1.509 5.765-2.104 5.81-5.639.958-1.748 1.016-4.139-.473-5.566z" class="coloreadab8 svgShape"/><path fill="#ddc9a6" d="M18.813 166.025c-.878.019.885-5.599.973-6.125.285-1.69.457-3.194-.426-4.713l-2.329 1.993c3.838 3.109 6.99 5.971 11.482 8.106 4.523 2.15 8.767 4.68 12.726 7.744 3.064 2.373 6.93 3.834 10.365 5.582 4.043 2.057 7.76 4.369 11.5 6.925 3.97 2.712 8.483 4.845 12.604 7.436 4.242 2.666 8.412 5.447 12.684 8.065 3.54 2.17 7.321 3.833 10.944 5.84 4.225 2.342 4.72 5.78 3.816 10.094-.2.96.916 1.69 1.72 1.14 4.934-3.374 1.043-10.67-2.51-13.342-3.576-2.689-8.246-4.322-12.114-6.578-5.445-3.177-10.875-6.377-16.331-9.536-5.141-2.976-9.737-6.925-14.592-10.365-4.377-3.1-9.224-5.368-13.755-8.195-8.875-5.534-17.721-10.97-27.096-15.71-1.276-.645-2.564 1.033-1.97 2.18 1.636 3.155-2.561 6.7-1.549 9.987.53 1.723 2.843 2.323 4.36 1.74 1.271-.489.802-2.297-.502-2.268z" class="colorddc9a6 svgShape"/><path fill="#ddc9a6" d="M59.808 181.141c1.284 3.509 6.468 4.895 9.454 6.575 4.627 2.602 9.376 5.132 13.816 8.04 4.215 2.763 8.742 5.165 13.13 7.647 1.562.884 3.044 1.88 4.565 2.83 3.513 2.192 1.91 7.379.087 9.69-.182.23-.058.625.223.71 3.561 1.076 4.073-2.358 4.397-5.114.71-6.04-5.453-9.364-9.716-11.927-5.989-3.6-11.997-6.975-18.372-9.836-5.634-2.529-10.682-9.2-17.357-9.02-.2.005-.285.246-.227.405z" class="colorddc9a6 svgShape"/><path fill="#ddc9a6" d="M104.421 206.28a6.87 6.87 0 0 0-.294-1.071c-.388-1.057-2.08-.575-1.688.492.129.348.224.706.294 1.07.091.472.663.723 1.09.599.492-.143.689-.62.598-1.09zm-82.12-46.392c-2.011-.318-4.35.209-4.939 2.525-.99 3.89.917 5.58 3.535 8.255 3.47 3.547 8.32 5.21 12.603 7.527 5.426 2.935 9.532 7.383 15.192 9.912 5.457 2.438 10.245 6.34 15.445 9.307 5.948 3.394 11.733 7.015 17.59 10.56 5.143 3.112 10.383 6.075 15.853 8.577 2.528 1.156 4.9 1.535 6.6-.895.252-.36-.086-.944-.541-.814-4.324 1.233-9.359-2.368-13.107-4.268-3.744-1.899-7.367-4.015-10.96-6.183-7.517-4.535-14.824-9.392-22.138-14.243-6.564-4.353-12.538-9.588-19.173-13.795-3.161-2.004-6.622-3.498-9.994-5.1-1.769-.84-11.703-7.49-5.885-9.445.89-.3.93-1.76-.08-1.92z" class="colorddc9a6 svgShape"/><path fill="#fff" d="M152.77 37.88c3.81 4.159 9.698 6.147 14.506 8.94 5.935 3.449 11.362 7.618 17.01 11.495 9.307 6.387 20.114 12.769 25.816 22.94.277.493 1.15.282.994-.324-2.706-10.529-10.805-16.265-19.46-22.092-5.518-3.717-10.91-7.61-16.422-11.334-6.702-4.53-14.184-7.712-21.644-10.769-.75-.307-1.348.544-.8 1.143zm63.852 62.32c-5.617 8.405-12.26 15.932-20.243 22.159-6.745 5.261-15.021 9.557-19.488 17.165-.233.397.365.738.651.42 6.53-7.22 15.858-11.62 23.345-17.777 7.126-5.86 13.019-13.033 17.645-20.982.71-1.218-1.157-2.11-1.91-.985zM34.885 121.656c-9.008-.013-8.027 11.041-4.52 16.32 2.773 4.17 7.952 6.498 12.086 9.029 5.845 3.579 11.497 7.316 17.467 10.688.743.42 1.45-.696.81-1.23-5.949-4.968-11.655-9.703-18.25-13.792-4.035-2.502-7.946-4.656-10.434-8.904-2.827-4.826.272-8.011 3.147-11.498.215-.26.014-.613-.306-.613zm86.846 60.309c6.2-2.463 11.574-6.445 16.487-10.893.472-.427-.096-1.108-.615-.759-5.364 3.604-10.45 7.755-16.335 10.503-.634.296-.192 1.41.463 1.149zm125.105-66.78c-2.96 5.508-1.255 11.785-3.553 17.337-2.273 5.49-6.91 11.16-11.56 14.845-.725.574-.01 1.883.848 1.432 5.887-3.091 10.164-7.403 13.32-13.283 1.437-2.676 2.042-5.436 2.043-8.448.002-3.862 1.016-7.71.529-11.53-.095-.738-1.25-1.056-1.627-.353zM15.893 178.017l-.137.292c-.113.242-.087.604.097.808 3.689 4.088 9.437 7.562 14.108 10.442 5.41 3.336 10.474 6.86 16.23 9.614.16.076.292-.183.142-.275-2.402-1.48-29.602-22.668-30.44-20.88zm14.793-6.747c2.703 2.85 6.41 4.142 9.886 5.85 5.547 2.724 11.033 5.676 16.044 9.32.47.342 1.05-.295.685-.74-6.86-8.334-17.099-10.3-26.235-14.968-.348-.177-.635.27-.38.538zm50 28.334c1.89 1.742 4.254 2.961 6.427 4.306.24.15.534-.203.313-.395-1.94-1.683-4.09-3.235-6.36-4.45-.335-.179-.658.283-.38.539zM151 70.23c-4.383-2.982-11.279-1.298-15.94.208-5.325 1.72-9.672 4.964-13.092 9.316-6.024 7.665-8.09 19.44-4.952 28.66.098.286.505.188.455-.112-1.522-9.26.813-18.3 5.952-26.065 2.968-4.485 7.493-7.562 12.35-9.684 5.052-2.208 9.92-1.334 15.167-2.041.135-.019.168-.208.06-.282zm-43.163 91.159c12.734.986 30.594-3.81 31.266-19.317.026-.612-.779-.772-1.021-.228-3.103 6.959-6.518 11.99-13.67 15.186-5.119 2.286-10.995 3.1-16.527 3.625-.4.038-.479.7-.048.734zm21.282 63.76c4.91.8 10.185-4.408 13.592-7.26 2.267-1.897 4.436-3.915 6.621-5.906 1.401-1.277 3.319-2.509 3.64-4.48.082-.502-.288-.874-.774-.886-1.617-.04-2.665 1.051-3.813 2.103-3.083 2.825-6.116 5.7-9.336 8.368-3.218 2.668-6.913 4.28-10.285 6.628-.578.404-.311 1.325.355 1.433z" class="colorfff svgShape"/><path d="M72.608 151.223c5.39-2.492 10.276-5.717 14.997-9.197 1.586 3.19 3.617 6.117 6.153 8.507-4.634 3.41-9.25 6.85-13.804 10.376-.461.357.068 1.033.546.714 4.904-3.272 9.795-6.551 14.655-9.864 18.39 14.805 47.596-3.695 39.878-29.66 7.453-6.236 12.923-11.303 36.54-28.048a42.962 42.962 0 0 1 1.45 4.9c.067.292.558.288.602-.016.278-1.955.108-4.013-.375-6.074 6.607-4.654 13.333-9.246 19.54-14.288.36-.292.105-.97-.381-.862-5.352 1.191-8.796 4.643-19.86 12.728-1.052-2.952-2.714-5.83-4.712-8.343 4.801-4.117 9.518-8.325 14.322-12.513.212-.185-.024-.603-.292-.485-5.796 2.54-11.018 6.51-16.056 10.712-16.993-17.484-46.4-1.437-46.625 18.833-.054 4.776 2.293 8.72 5.004 12.432-18.085 12.483-27.41 20.381-34.305 25.914-1.244-3.014-2.284-6.135-3.535-9.11-.612-1.454-3.153-1.194-2.887.578.555 3.71 1.557 7.56 3.065 11.186-4.67 3.64-9.47 7.1-14.65 9.98-.975.543-.312 2.081.73 1.6zm26.23-1.998c11.213-7.72 22.227-15.684 32.788-24.292 4.785 19.927-16.914 34.824-32.788 24.292zm71.845-57.422c-26.434 19.29-22.417 16.301-36.42 28.014-1.385-3.588-2.967-5.923-5.007-8.664 11.924-8.252 25.516-17.979 36.568-27.336 2.006 2.397 3.613 5.111 4.859 7.986zm-47.278 4.105c3.087-16.74 26.497-27.39 40.313-14.336-10.479 8.904-18.101 14.687-36.225 27.208-2.757-3.781-5.052-7.648-4.088-12.872zm2.535 17.56c2.061 2.9 3.848 5.867 4.987 9.103-10.927 8.898-22.357 17.114-33.724 25.434-2.794-2.331-4.664-5.249-6.218-8.523 5.708-4.387 17.663-14.006 34.955-26.014z" class="color000 svgShape"/><path d="M14.335 165.506c-2.932-1.332-4.765-2.614-6.862-.682-1.855 1.71-2.839 5.456-3.107 8.243-.286-.429-.936-.005-.765.452 1.624 4.348 4.953 7.321 8.824 9.759 56.136 35.341 58.204 35.435 84.333 48.896 4.65 2.396 9.451 5.849 14.36 7.618 9.074 3.27 19.316-6.302 25.055-10.311 59.92-41.858 68.85-50.212 107.06-82.477 9.108-7.69 16.069-14.41 17.842-26.703 1.3-9.015-1.687-18.394-5.76-26.422.603-2.298-.16-4.701-3.312-7.086-6.06-4.584-14.962-7.258-38.494-24.082-21.746-15.55-37.867-29.823-40.75-29.904-19.323-15.397-21.695-7.321-45.725 8.125-11.836 7.61-36.184 24.32-46.939 33.303-32.08 26.795-26.223 20.053-66.959 53.457a.97.97 0 0 0-1.099.072c-3.088 2.273-3.219 4.738-1.863 7.106-4.112 6.838-.11 14.736 6.448 19.281-1.112 2.163-.55 4.116-1.046 6.562-.374 1.845-1.19 3.262-1.241 4.793zM73.14 84.821c25.091-21.43 31.893-24.703 74.42-52.915 5.468-3.627 9.225-5.24 15.706-1.675 2.827 1.554 5.585 3.803 8.561 5.358.12.132.259.254.435.353 7.603 4.277 23.55 20.193 63.932 45.473 10.13 6.342 17.287 8.315 15.717 12.428-1.14 2.988-6.579 5.993-8.967 7.654-10.495 7.303-20.406 15.38-30.585 23.112-10.378 7.884-21.438 14.839-31.656 22.922-28.61 22.633-24.16 16.433-46.968 33.133-4.606 3.372-9.015 8.233-14.638 9.826-9.868 2.797-16.115-4.42-35.671-15.622-12.868-7.37-26.214-13.867-38.998-21.388-6.258-3.682-12.349-7.6-18.658-11.2-3.038-1.733-16.302-8.061-12.265-12.868.27-.322.293-.704.179-1.04 13.852-8.32 26.673-18.448 39.416-28.345 6.617-5.14 13.67-9.764 20.04-15.206zm-62.485 50.8c3.006 4.26 10.406 8.103 13.397 9.8 13.33 7.566 26.289 15.628 39.853 22.806 31.304 16.565 28.048 16.792 39.24 22.895 14.683 8.008 22.073.481 30.271-5.888 11.739-9.119 25.04-15.722 36.777-24.81 6.186-4.79 12.13-9.907 18.462-14.506 6.193-4.497 12.639-8.626 18.796-13.177 12.295-9.086 23.981-19.029 36.568-27.709 3.172-2.188 7.683-5.158 9.994-8.482 2.615 7.565 5.493 15.117 4.075 23.25-.959 5.499-2.546 10.3-5.998 14.76-3.385 4.378-8.037 7.58-12.227 11.135-10.23 8.68-20.3 17.65-30.655 26.24 1.772-5.348 3.561-9.716 2.047-15.376-1.206-4.506-3.726-9.105-8.164-11.029-.481-.209-.938.462-.58.839 11.843 12.49 5.288 19.217 6.154 25.721.013.102.082.146.16.165-14.395 11.919-17.028 13.258-45.434 33.965 1.418-4.915-.118-16.472-4.967-18.669-.496-.225-.847.42-.57.8 3.18 4.37 6.658 15.17 2.53 19.482-.114.119-.14.343.15.467-8.871 6.463-17.754 12.911-26.733 19.236-6.301 4.44-12.741 10.894-20.143 9.506 7.039-2.654 8.704-10.048 9.293-17.233 1.873-22.865-10.022-27.088-8.849-24.554 3.143 6.797 7.445 10.025 6.463 23.692-.506 7.043-1.333 15-9.142 17.473l-.002.001c-2.441-.88-4.81-2.335-7.491-3.749-21.558-11.363-27.39-12.305-78.307-44.208-6.69-4.192-16.277-8.317-20.826-14.788.643-3.234 2.673-8.056 6.707-6.959.59.161 1.781 1.22 2.43 1.588 49.257 27.983 45.562 31.013 79.113 47.894 3.1 1.56 7.443 4.374 11.09 3.377 6.013-1.643 3.9-11.31 1.488-14.973-.22-.333-.602-.367-.89-.22-29.25-19.822-43.748-26.878-74.819-45.316-9.263-5.497-22.404-10.344-19.261-23.446zm18.3 25.477c29.512 17.65 33.562 19.304 48.967 28.598 8.805 5.313 17.22 10.8 26.45 15.283.01.386 4.284 13.748-3.576 11.934-5.416-1.25-11.413-5.482-16.278-8.146-20.968-11.481-46.557-32.243-69.1-42.757.353-1.89 1.268-3.575 1.565-5.488 1.556 1.388 3.5 1.956 5.381 3.035 2.866 1.642 5.43 3.884 7.888 6.072.223.198.544-.094.34-.323-1.86-2.084-3.935-3.937-6.31-5.415-2.301-1.431-5.045-2.11-7.256-3.656.178-1.501.198-3.53.365-5.568 3.69 2.409 7.787 4.172 11.564 6.43z" class="color000 svgShape"/><path d="M61.107 185.487c4.143 3.069 8.22 6.055 13.056 7.947.166.065.254-.181.097-.256-5.7-2.701-10.132-6.98-15.238-10.549-4.952-3.46-12.887-6.633-12.548-6.41 4.791 3.269 9.961 5.807 14.633 9.268zm34.28 23.111c.29.052.493-.335.21-.5-1.844-1.07-4.094-1.514-5.798-2.788-.559-.418-1.09.428-.6.867 1.76 1.58 3.937 2.025 6.187 2.421z" class="color000 svgShape"/></svg></svg>