<svg xmlns="http://www.w3.org/2000/svg" width="256" height="256"><svg xmlns="http://www.w3.org/2000/svg" width="256" height="256" viewBox="0 0 64 64"><circle cx="44" cy="44" r="19" fill="#ccc" class="colorccc svgShape"/><path fill="#b5a19c" stroke="#4c241d" stroke-linecap="round" stroke-linejoin="round" stroke-width="2" d="m10.956 30.338.159.018c5.748.638 8.806-3.173 13.841-6.018l16.454-5.485a2.261 2.261 0 0 0 1.546-2.144h0a2.26 2.26 0 0 0-2.368-2.258l-18.632.887Z" class="colorb5a19c svgShape colorStroke4c241d svgStroke"/><path fill="#a9ba5a" stroke="#4c241d" stroke-linecap="round" stroke-linejoin="round" stroke-width="2" d="M1 21h54v24H1z" class="colora9ba5a svgShape colorStroke4c241d svgStroke"/><circle cx="28" cy="33" r="9" fill="#ffec95" class="colorffec95 svgShape"/><path fill="none" stroke="#4c241d" stroke-linecap="round" stroke-linejoin="round" stroke-width="2" d="M31 27h-4.389A2.611 2.611 0 0 0 24 29.611v.778A2.611 2.611 0 0 0 26.611 33h2.778A2.611 2.611 0 0 1 32 35.611v.778A2.611 2.611 0 0 1 29.389 39h-5.2M28 25v16M40 42h7a5 5 0 0 1 5-5v-7" class="colorStroke4c241d svgStroke"/><circle cx="51" cy="41" r="1" fill="#4c241d" class="color4c241d svgShape"/><path fill="#e7d1c4" stroke="#4c241d" stroke-linecap="round" stroke-linejoin="round" stroke-width="2" d="M52.956 2.97S48.411 7.384 47.3 7.908a11.227 11.227 0 0 1-4.769 1.062H25.878a9.827 9.827 0 0 0-7.412 3.375l-11.751 13.5A2.908 2.908 0 0 0 7.065 30a3.008 3.008 0 0 0 4.073-.378l10.944-11.751a9.39 9.39 0 0 1 6.871-2.991h5.436a2.6 2.6 0 0 1 2.6 2.6h0a2.6 2.6 0 0 1-2.6 2.6h-5.826a6.632 6.632 0 0 0-2.637.513C21.593 22.465 23.211 27 26.335 27h19.309a12.535 12.535 0 0 0 8.864-3.672l3.741-5.741 4.707-2.707" class="colore7d1c4 svgShape colorStroke4c241d svgStroke"/><circle cx="36.5" cy="50.5" r="1.5" fill="#4c241d" class="color4c241d svgShape"/><path fill="none" stroke="#4c241d" stroke-linecap="round" stroke-linejoin="round" stroke-width="2" d="M44 56v4M42 58h4M60 52v4M58 54h4" class="colorStroke4c241d svgStroke"/></svg></svg>