<svg xmlns="http://www.w3.org/2000/svg" width="256" height="256"><svg xmlns="http://www.w3.org/2000/svg" width="256" height="256" data-name="Flat Gradient" viewBox="0 0 64 64"><defs><linearGradient id="a" x1="11" x2="53" y1="32" y2="32" gradientUnits="userSpaceOnUse"><stop class="stopColor7f00ff svgShape" offset="0" stop-color="#7f00ff"/><stop class="stopColore100ff svgShape" offset="1" stop-color="#e100ff"/></linearGradient></defs><path fill="url(#a)" d="M37.5 27.6h-2.3v-1.3h2.3c.06 0 .1.04.1.1v1.1a.1.1 0 0 1-.1.1Zm.1-3.4v-1.1c0-.06-.04-.1-.1-.1h-2.3v1.3h2.3a.1.1 0 0 0 .1-.1ZM45 17h8v40c0 1.65-1.35 3-3 3H14c-1.65 0-3-1.35-3-3V7c0-1.65 1.35-3 3-3h26v8c0 2.76 2.24 5 5 5ZM33.2 28.6c0 .55.45 1 1 1h3.3a2.1 2.1 0 0 0 2.1-2.1v-1.1c0-.4-.11-.78-.31-1.1.2-.32.31-.7.31-1.1v-1.1a2.1 2.1 0 0 0-2.1-2.1h-3.3c-.55 0-1 .45-1 1v6.6Zm-8.8 0c0 .55.45 1 1 1h4.4c.55 0 1-.45 1-1s-.45-1-1-1h-3.4v-1.3h3.4c.55 0 1-.45 1-1s-.45-1-1-1h-3.4V23h3.4c.55 0 1-.45 1-1s-.45-1-1-1h-4.4c-.55 0-1 .45-1 1v6.6Zm-7.8 1h3.07c1.28 0 2.33-1.05 2.33-2.33v-3.94c0-1.29-1.05-2.33-2.33-2.33H16.6c-.55 0-1 .45-1 1v6.6c0 .55.45 1 1 1ZM33 55c0-.55-.45-1-1-1h-3v-3c0-.4-.24-.77-.62-.92-.37-.16-.8-.07-1.09.21L25 52.59V51c0-.4-.24-.77-.62-.92-.37-.16-.8-.07-1.09.21l-4 4c-.39.39-.39 1.03 0 1.42.39.39 1.03.39 1.42 0l2.29-2.3V55c0 .4.24.77.62.92.12.06.25.08.38.08.26 0 .52-.1.71-.29l2.29-2.3V55c0 .55.45 1 1 1h4c.55 0 1-.45 1-1Zm12-11.7c0-.55-.45-1-1-1H20c-.55 0-1 .45-1 1s.45 1 1 1h24c.55 0 1-.45 1-1Zm0-7c0-.55-.45-1-1-1H20c-.55 0-1 .45-1 1s.45 1 1 1h24c.55 0 1-.45 1-1ZM47.4 21H43c-.55 0-1 .45-1 1s.45 1 1 1h1.2v5.6c0 .55.45 1 1 1s1-.45 1-1V23h1.2c.55 0 1-.45 1-1s-.45-1-1-1ZM20 27.27v-3.94c0-.18-.15-.33-.33-.33H17.6v4.6h2.07c.18 0 .33-.15.33-.33ZM45 15h6.58L42 5.42V12c0 1.65 1.35 3 3 3Zm5-11h-6.58L53 13.58V7c0-1.65-1.35-3-3-3Z"/></svg></svg>