<svg xmlns="http://www.w3.org/2000/svg" width="256" height="256"><svg xmlns="http://www.w3.org/2000/svg" width="256" height="256" viewBox="0 0 64 64"><rect width="54" height="54" x="5" y="5" fill="#a1f3c0" class="colora1f3c0 svgShape" rx="5.61" ry="5.61"/><path fill="#f0f3f5" fill-rule="evenodd" d="M26.81 11.97v2.37c0 1.66-1.35 3.01-3.01 3.01H11.97c-1.66 0-3.01 1.35-3.01 3.01v33.03c0 .98.67 1.65 1.65 1.65h42.78c.98 0 1.65-.67 1.65-1.65V10.61c0-.98-.67-1.65-1.65-1.65H29.82c-1.66 0-3.01 1.35-3.01 3.01Z" class="colorf0f3f5 svgShape"/><path fill="#e4ecf0" fill-rule="evenodd" d="M50.46 8.96c.98 0 1.65.67 1.65 1.65v42.78c0 .98-.67 1.65-1.65 1.65h2.93c.98 0 1.65-.67 1.65-1.65V10.61c0-.98-.67-1.65-1.65-1.65h-2.93Z" class="colore4ecf0 svgShape"/><path fill="#8cebbc" fill-rule="evenodd" d="M50.78 5c3.1 0 5.61 2.5 5.61 5.61v42.78c0 3.1-2.5 5.61-5.61 5.61h2.61C56.5 59 59 56.5 59 53.39V10.61C59 7.5 56.5 5 53.39 5h-2.61Z" class="color8cebbc svgShape"/><path fill="#9fa9b6" fill-rule="evenodd" d="M15.1 21.15h33.8c1.06 0 1.91.85 1.91 1.91s-.85 1.91-1.91 1.91H15.1c-1.06 0-1.91-.85-1.91-1.91s.85-1.91 1.91-1.91Z" class="color9fa9b6 svgShape"/><rect width="17.51" height="17.51" x="12.6" y="29.29" fill="#f5e680" class="colorf5e680 svgShape" rx="3.39" ry="3.39"/><path fill="#8996a8" fill-rule="evenodd" d="M45.36 21.15c1.06 0 1.91.85 1.91 1.91s-.85 1.91-1.91 1.91h3.54c1.06 0 1.91-.85 1.91-1.91s-.85-1.91-1.91-1.91h-3.54Z" class="color8996a8 svgShape"/><path fill="#f2d865" fill-rule="evenodd" d="M23.45 29.3a3.38 3.38 0 0 1 3.39 3.39v10.72a3.38 3.38 0 0 1-3.39 3.39h3.27a3.38 3.38 0 0 0 3.39-3.39V32.69a3.38 3.38 0 0 0-3.39-3.39h-3.27Z" class="colorf2d865 svgShape"/><path d="M26.72 28.29H15.99c-2.42 0-4.39 1.97-4.39 4.39V43.4c0 2.42 1.97 4.39 4.39 4.39h10.72c2.42 0 4.39-1.97 4.39-4.39V32.68c0-2.42-1.97-4.39-4.39-4.39Zm2.39 15.12a2.39 2.39 0 0 1-2.39 2.39H15.99a2.39 2.39 0 0 1-2.39-2.39V32.69a2.39 2.39 0 0 1 2.39-2.39h10.72a2.39 2.39 0 0 1 2.39 2.39v10.72Z" class="color000 svgShape"/><circle cx="14.34" cy="50.36" r="1.25" class="color000 svgShape"/><circle cx="17.85" cy="50.36" r="1.25" class="color000 svgShape"/><circle cx="21.36" cy="50.36" r="1.25" class="color000 svgShape"/><path d="M21.36 33.73c-1.71 0-3.11 1.39-3.11 3.11v4.54c0 .55.45 1 1 1s1-.45 1-1v-1.27h2.21v1.27c0 .55.45 1 1 1s1-.45 1-1v-4.54c0-1.71-1.39-3.11-3.11-3.11Zm-1.11 4.38v-1.27c0-.61.5-1.11 1.11-1.11s1.11.5 1.11 1.11v1.27h-2.21Z" class="color000 svgShape"/><circle cx="24.86" cy="50.36" r="1.25" class="color000 svgShape"/><circle cx="28.37" cy="50.36" r="1.25" class="color000 svgShape"/><path d="M47.95 34.73H33.91c-.55 0-1 .45-1 1s.45 1 1 1h14.04c.55 0 1-.45 1-1s-.45-1-1-1zm-8.68 4.63h-5.36c-.55 0-1 .45-1 1s.45 1 1 1h5.36c.55 0 1-.45 1-1s-.45-1-1-1zm0 4.64h-5.36c-.55 0-1 .45-1 1s.45 1 1 1h5.36c.55 0 1-.45 1-1s-.45-1-1-1zm8.68-13.9H33.91c-.55 0-1 .45-1 1s.45 1 1 1h14.04c.55 0 1-.45 1-1s-.45-1-1-1z" class="color000 svgShape"/><path d="M53.39 4H10.61C6.97 4 4 6.96 4 10.61v42.78C4 57.03 6.96 60 10.61 60h42.78c3.64 0 6.61-2.96 6.61-6.61V10.61C60 6.97 57.04 4 53.39 4ZM58 53.39c0 2.54-2.07 4.61-4.61 4.61H10.61C8.07 58 6 55.93 6 53.39V10.61C6 8.07 8.07 6 10.61 6h42.78C55.93 6 58 8.07 58 10.61v42.78Z" class="color000 svgShape"/><path d="M53.39 7.96H29.82c-2.21 0-4.01 1.8-4.01 4.01v2.37c0 1.11-.9 2.01-2.01 2.01H11.97c-2.21 0-4.01 1.8-4.01 4.01v33.03c0 1.53 1.11 2.65 2.65 2.65h42.78c1.53 0 2.65-1.11 2.65-2.65V10.61c0-1.53-1.11-2.65-2.65-2.65Zm.65 45.43c0 .43-.22.65-.65.65H10.61c-.43 0-.65-.22-.65-.65V20.35c0-1.09.92-2.01 2.01-2.01H23.8c2.21 0 4.01-1.8 4.01-4.01v-2.37c0-1.09.92-2.01 2.01-2.01H53.4c.43 0 .65.22.65.65v42.79Z" class="color000 svgShape"/><circle cx="11.38" cy="12.15" r="1.25" class="color000 svgShape"/><circle cx="16.64" cy="12.15" r="1.25" class="color000 svgShape"/><circle cx="21.9" cy="12.15" r="1.25" class="color000 svgShape"/><path d="M31.49 14.21h18.84c.55 0 1-.45 1-1s-.45-1-1-1H31.49c-.55 0-1 .45-1 1s.45 1 1 1zm17.41 5.94H15.1c-1.61 0-2.91 1.31-2.91 2.91s1.31 2.91 2.91 2.91h33.8c1.61 0 2.91-1.31 2.91-2.91s-1.31-2.91-2.91-2.91zm0 3.83H15.1c-.5 0-.91-.41-.91-.91s.41-.91.91-.91h33.8c.5 0 .91.41.91.91s-.41.91-.91.91z" class="color000 svgShape"/></svg></svg>