<svg xmlns="http://www.w3.org/2000/svg" width="256" height="256"><svg xmlns="http://www.w3.org/2000/svg" width="256" height="256" viewBox="0 0 60 60"><path fill="#46d16a" d="M33 15V2a1 1 0 0 1 1-1h24a1 1 0 0 1 1 1v42a1 1 0 0 1-1 1H34a1 1 0 0 1-1-1l-1-1V16Z" class="color46d16a svgShape"/><path fill="#84f27e" d="M37 23v13.02a.7.7 0 0 0 .59.7 4.092 4.092 0 0 1 2.5 1.4 4.345 4.345 0 0 1 1.02 2.26.707.707 0 0 0 .68.62h8.42a.7.7 0 0 0 .68-.62 4.343 4.343 0 0 1 1.34-2.6 4.191 4.191 0 0 1 2.17-1.06.71.71 0 0 0 .6-.7V9.98a.71.71 0 0 0-.6-.7 4.191 4.191 0 0 1-2.17-1.06 4.343 4.343 0 0 1-1.34-2.6.7.7 0 0 0-.68-.62h-8.42a.7.7 0 0 0-.68.62 4.343 4.343 0 0 1-1.34 2.6 4.191 4.191 0 0 1-2.17 1.06.71.71 0 0 0-.6.7V23Z" class="color84f27e svgShape"/><circle cx="46" cy="11" r="2" fill="#46d16a" class="color46d16a svgShape"/><circle cx="46" cy="35" r="2" fill="#46d16a" class="color46d16a svgShape"/><circle cx="46" cy="23" r="5" fill="#46d16a" class="color46d16a svgShape"/><path fill="#a06858" d="M27.53 45.9C32.25 45.49 33 44 33 44V26a3 3 0 0 1 3-3h5a4 4 0 0 0 0-8h-9.66a5.149 5.149 0 0 0-4.62 2.88 44.831 44.831 0 0 1-9.64 13.04.445.445 0 0 1-.08.08l4 9Z" class="colora06858 svgShape"/><path fill="#294960" d="M17.039 30.867 27.778 46.25a2.438 2.438 0 0 1-.352 3.193l-9.853 9.031a2 2 0 0 1-1.351.526H3a2 2 0 0 1-2-2V41.925a2 2 0 0 1 .7-1.525l11.756-10a2.438 2.438 0 0 1 3.583.467Z" class="color294960 svgShape"/></svg></svg>