<svg xmlns="http://www.w3.org/2000/svg" width="256" height="256"><svg xmlns="http://www.w3.org/2000/svg" width="256" height="256" viewBox="0 0 64 64"><path fill="#02af9e" d="M33 47v-6h11v11H33z" class="color02af9e svgShape"/><path fill="#0dcebb" d="M44 41v1.59L34.79 52H33v-2.45L41.37 41zM44 44.02v1.43L37.59 52h-1.41zM28 41v18h-8V41z" class="color0dcebb svgShape"/><path fill="#02af9e" d="M20 43v16h-8V41h8z" class="color02af9e svgShape"/><path fill="#0dcebb" d="M20 41v3.66l-8 9.64v-4.71L19.13 41zM12 55.86l8-9.64v1.57l-8 9.64z" class="color0dcebb svgShape"/><path fill="#40e2cf" d="M28 42v3.66l-8 9.64v-4.71L27.13 42zM20 56.86l8-9.64v1.57l-8 9.64z" class="color40e2cf svgShape"/><path fill="#8ac926" d="M33.5 52h10a2.5 2.5 0 0 1 2.5 2.5V59H31v-4.5a2.5 2.5 0 0 1 2.5-2.5z" class="color8ac926 svgShape"/><path fill="#7aa822" d="M46 54.5V59H31v-3h10.5a1.5 1.5 0 0 0 1.5-1.5V52h.5a2.5 2.5 0 0 1 2.5 2.5z" class="color7aa822 svgShape"/><path fill="#999" d="M51 59v4H5v-4h44z" class="color999 svgShape"/><path fill="gray" d="M51 59v4H5v-2h42a2 2 0 0 0 2-2h2z" class="colorgray svgShape"/><path fill="#ffca3a" d="M58 41v4l-1 1h-4l-1-1v-4z" class="colorffca3a svgShape"/><path fill="#ff9700" d="M58 41v4l-1 1h-4l-1-1v-1h3l1-1v-2z" class="colorff9700 svgShape"/><path fill="#9e7059" d="M59 38v3H49v-3z" class="color9e7059 svgShape"/><path fill="#995b3f" d="M56 38h3v3h-3z" class="color995b3f svgShape"/><path fill="#e2dede" d="M36 35c0 .55 1.79 1 4 1s4-.45 4-1c0 .55 1.57 1 3.5 1 .54 0 1.05-.03 1.5-.1V59h-3v-4.5a2.5 2.5 0 0 0-2.5-2.5h.5V41H33v11h.5a2.5 2.5 0 0 0-2.5 2.5V59h-3V41H12v18H7V35.9c.45.07.96.1 1.5.1 1.93 0 3.5-.45 3.5-1 0 .55 1.79 1 4 1s4-.45 4-1c0 .55 1.79 1 4 1s4-.45 4-1c0 .55 1.79 1 4 1s4-.45 4-1z" class="colore2dede svgShape"/><path fill="#c1aeae" d="M47.5 36c-1.93 0-3.5-.45-3.5-1 0 .55-1.79 1-4 1s-4-.45-4-1c0 .55-1.79 1-4 1s-4-.45-4-1c0 .55-1.79 1-4 1s-4-.45-4-1c0 .55-1.79 1-4 1s-4-.45-4-1c0 .55-1.57 1-3.5 1-.54 0-1.05-.03-1.5-.1v2c.45.07.96.1 1.5.1 1.93 0 3.5-.45 3.5-1 0 .55 1.79 1 4 1s4-.45 4-1c0 .55 1.79 1 4 1s4-.45 4-1c0 .55 1.79 1 4 1s4-.45 4-1c0 .55 1.79 1 4 1s4-.45 4-1c0 .408.868.759 2.105.913.507.063.895.482.895.993V59h2V35.9c-.45.07-.96.1-1.5.1z" class="colorc1aeae svgShape"/><path fill="#e2dede" d="M42 17v4H14v-4h20z" class="colore2dede svgShape"/><path fill="#d3bebe" d="M42 17v4H14v-2h24a1 1 0 0 0 1-1v-1h3z" class="colord3bebe svgShape"/><path fill="#e2dede" d="m41 21 3 14c0 .55-1.79 1-4 1s-4-.45-4-1l-3-14h8zm-13 0v14c0 .55-1.79 1-4 1s-4-.45-4-1l3-14h5zm-13 0-3 14c0 .55-1.57 1-3.5 1-.54 0-1.05-.03-1.5-.1-1.18-.16-2-.5-2-.9l2.79-13.29c.12-.42.51-.71.95-.71H15z" class="colore2dede svgShape"/><path fill="#e02b4f" d="M42 21h5.26c.44 0 .83.29.95.71L51 35c0 .4-.82.74-2 .9-.45.07-.96.1-1.5.1-1.93 0-3.5-.45-3.5-1l-3-14h1zm-9 0 3 14c0 .55-1.79 1-4 1s-4-.45-4-1V21h5zm-10 0-3 14c0 .55-1.79 1-4 1s-4-.45-4-1l3-14h8z" class="colore02b4f svgShape"/><path fill="#d3bebe" d="M44 35c0 .55-1.79 1-4 1s-4-.45-4-1l-.34-1.6c.22-.12.34-.25.34-.4 0 .55 1.79 1 4 1 1.64 0 3.04-.25 3.66-.6L44 35zm-16-2v2c0 .55-1.79 1-4 1s-4-.45-4-1l.34-1.6c.62.35 2.02.6 3.66.6 2.21 0 4-.45 4-1zm-15.66.4L12 35c0 .55-1.57 1-3.5 1-.54 0-1.05-.03-1.5-.1-1.18-.16-2-.5-2-.9l.33-1.57c.35.2.94.37 1.67.47.45.07.96.1 1.5.1 1.93 0 3.5-.45 3.5-1 0 .15.12.28.34.4z" class="colord3bebe svgShape"/><path fill="#c90030" d="M51 35c0 .4-.82.74-2 .9-.45.07-.96.1-1.5.1-1.93 0-3.5-.45-3.5-1l-.34-1.6c.22-.12.34-.25.34-.4 0 .55 1.57 1 3.5 1 .54 0 1.05-.03 1.5-.1.73-.1 1.32-.27 1.67-.47L51 35zm-15 0c0 .55-1.79 1-4 1s-4-.45-4-1v-2c0 .55 1.79 1 4 1 1.64 0 3.04-.25 3.66-.6L36 35zm-15.66-1.6L20 35c0 .55-1.79 1-4 1s-4-.45-4-1l.34-1.6c.62.35 2.02.6 3.66.6 2.21 0 4-.45 4-1 0 .15.12.28.34.4z" class="colorc90030 svgShape"/><path fill="#9e7059" d="M34 8c1.1 0 2 .9 2 2 0 .55-.22 1.05-.59 1.41-.36.37-.86.59-1.41.59H22c-1.1 0-2-.9-2-2 0-.55.22-1.05.59-1.41.36-.37.86-.59 1.41-.59h12z" class="color9e7059 svgShape"/><path fill="#e89a10" d="M36 13v2c0 1.1-.9 2-2 2H22c-1.1 0-2-.9-2-2v-2c0-.55.45-1 1-1h14c.55 0 1 .45 1 1zm0-8v3H20V5c0-2.21 1.79-4 4-4h8c2.21 0 4 1.79 4 4z" class="colore89a10 svgShape"/><path fill="#efab48" d="M24 1a4 4 0 0 0-4 4v3h2V7a4 4 0 0 1 4-4h1a2 2 0 0 0 2-2h-5z" class="colorefab48 svgShape"/><path fill="#995b3f" d="M36 10c0 .55-.22 1.05-.59 1.41-.36.37-.86.59-1.41.59h-3c.55 0 1.05-.22 1.41-.59.37-.36.59-.86.59-1.41 0-1.1-.9-2-2-2h3c1.1 0 2 .9 2 2z" class="color995b3f svgShape"/><path fill="#c97700" d="M36 13v2c0 1.1-.9 2-2 2H22c-1.1 0-2-.9-2-2h11c1.1 0 2-.9 2-2v-1h2c.55 0 1 .45 1 1zm0-8v3h-3V5c0-2.21-1.79-4-4-4h3c2.21 0 4 1.79 4 4z" class="colorc97700 svgShape"/><path fill="none" stroke="#4f680b" stroke-linecap="round" stroke-linejoin="round" stroke-miterlimit="10" d="M35 55s1-1 2 0m3 1s1-1 2 0" class="colorStroke4f680b svgStroke"/></svg></svg>